<?xml version="1.0" standalone="no"?><!DOCTYPE svg PUBLIC "-//W3C//DTD SVG 1.1//EN" "http://www.w3.org/Graphics/SVG/1.1/DTD/svg11.dtd"><svg t="1653835215325" class="icon" viewBox="0 0 1024 1024" version="1.1" xmlns="http://www.w3.org/2000/svg" p-id="2262" xmlns:xlink="http://www.w3.org/1999/xlink" width="16" height="16"><defs><style type="text/css">@font-face { font-family: feedback-iconfont; src: url("//at.alicdn.com/t/font_1031158_u69w8yhxdu.woff2?t=1630033759944") format("woff2"), url("//at.alicdn.com/t/font_1031158_u69w8yhxdu.woff?t=1630033759944") format("woff"), url("//at.alicdn.com/t/font_1031158_u69w8yhxdu.ttf?t=1630033759944") format("truetype"); }
</style></defs><path d="M664.1 783c-3.8 0-7.6-0.2-11.3-0.5-36.3-3.1-68.9-20.6-96.9-52.1-28.4-32-52.5-79.4-71.4-140.8-32.4-105-66.1-182.6-100.3-230.6-25.5-35.8-50.2-54-73.4-54h-0.4c-38.8 0.4-84.8 51-129.3 142.7-37 76.2-59.4 153-59.7 153.8L64 582.6c1-3.4 24.3-83.1 63.7-164.3 56.8-117 118.1-176.6 182.1-177.3h1c43 0 83.8 26.7 121.2 79.3 38.2 53.7 75.1 137.5 109.5 249.3 29.3 94.9 68.3 145.1 116 149.1 21.3 1.8 45.6-5.2 72.2-20.9 24.5-14.4 50.3-35.8 76.8-63.5 49.6-51.9 87.7-111.9 100.1-137.6L960 526c-14.6 30.4-56.4 96.4-111.4 154-30.4 31.8-60.6 56.6-89.9 73.9-32.8 19.3-64.6 29.1-94.6 29.1z" fill="#FAAD14" p-id="2263"></path></svg>