<svg xmlns="http://www.w3.org/2000/svg" width="16" height="16" viewBox="0 0 16 16">
  <g fill="none">
    <rect width="16" height="16" fill="#000" opacity="0"/>
    <path fill="#EBF2FF" d="M1.046875,8 C1.046875,11.8401049 4.1598951,14.953125 8,14.953125 C11.8401049,14.953125 14.953125,11.8401049 14.953125,8 C14.953125,4.1598951 11.8401049,1.046875 8,1.046875 C4.1598951,1.046875 1.046875,4.1598951 1.046875,8 Z"/>
    <polygon fill="#377FFC" points="4.789 4.811 7.705 4.811 7.705 7.727 4.789 7.727"/>
    <path fill="#ABC6F6" d="M9.7375,7.7265625 C9.6609375,7.7265625 9.5859375,7.696875 9.528125,7.6390625 L8.3515625,6.4625 C8.2359375,6.346875 8.2359375,6.159375 8.3515625,6.04375 L9.528125,4.8671875 C9.6390625,4.75625 9.8359375,4.75625 9.946875,4.8671875 L11.1234375,6.04375 C11.2390625,6.159375 11.2390625,6.346875 11.1234375,6.4625 L9.946875,7.6390625 C9.890625,7.696875 9.8140625,7.7265625 9.7375,7.7265625 Z M8.98125,6.253125 L9.7390625,7.0109375 L10.496875,6.253125 L9.7390625,5.4953125 L8.98125,6.253125 Z"/>
    <path fill="#377FFC" d="M4.7890625,8.3015625 L7.7046875,8.3015625 L7.7046875,11.2171875 L4.7890625,11.2171875 L4.7890625,8.3015625 Z M8.265625,8.3015625 L11.18125,8.3015625 L11.18125,11.2171875 L8.265625,11.2171875 L8.265625,8.3015625 Z"/>
  </g>
</svg>
