<?xml version="1.0" encoding="UTF-8"?>
<svg width="21px" height="20px" viewBox="0 0 21 20" version="1.1" xmlns="http://www.w3.org/2000/svg" xmlns:xlink="http://www.w3.org/1999/xlink">
    <title>切片</title>
    <g id="部署" stroke="none" stroke-width="1" fill="none" fill-rule="evenodd">
        <g id="资源视图-工作负载" transform="translate(-310.000000, -336.000000)">
            <g id="导航/Tree-树形/通用" transform="translate(272.000000, 176.000000)">
                <g id="tree-item2" transform="translate(16.044743, 158.000000)">
                    <g id="ic/check_box_outline" transform="translate(22.000000, 2.000000)">
                        <polygon id="路径" points="0 0 20 0 20 20 0 20"></polygon>
                        <path d="M16.6666667,5 L10,5 L8.33333333,3.33333333 L3.33333333,3.33333333 C2.41666667,3.33333333 1.675,4.08333333 1.675,5 L1.66666667,15 C1.66666667,15.9166667 2.41666667,16.6666667 3.33333333,16.6666667 L16.6666667,16.6666667 C17.5833333,16.6666667 18.3333333,15.9166667 18.3333333,15 L18.3333333,6.66666667 C18.3333333,5.75 17.5833333,5 16.6666667,5 Z" id="路径" fill="#FAAD14" fill-rule="nonzero"></path>
                        <path d="M16.6666667,5 L10,5 L1.675,5 L1.66666667,15 C1.66666667,15.9166667 2.41666667,16.6666667 3.33333333,16.6666667 L16.6666667,16.6666667 C17.5833333,16.6666667 18.3333333,15.9166667 18.3333333,15 L18.3333333,6.66666667 C18.3333333,5.75 17.5833333,5 16.6666667,5 Z" id="路径" fill="#FFCD69" fill-rule="nonzero"></path>
                    </g>
                </g>
            </g>
        </g>
    </g>
</svg>