<?xml version="1.0" encoding="UTF-8"?>
<svg width="16px" height="17px" viewBox="0 0 16 17" version="1.1" xmlns="http://www.w3.org/2000/svg" xmlns:xlink="http://www.w3.org/1999/xlink">
    <title>切片</title>
    <defs>
        <path d="M2.24519744,9.11107148 C2.00369643,9.39258901 1.64731731,9.5552006 1.27169383,9.5552006 C0.569664584,9.5552006 0.000518279703,8.99840526 0.000469980522,8.31145786 L0,1.62709624 C0,1.45560689 0.0276909405,1.28519452 0.0820825176,1.12217335 C0.367002928,0.268216538 1.30544401,-0.198040666 2.17814933,0.0807587393 L6.10911963,1.33656886 C6.29944703,1.39737194 6.47607817,1.49335774 6.62942643,1.61931667 C7.29121044,2.16290027 7.37735612,3.12851842 6.82183823,3.77608519 L2.24519744,9.11107148 Z" id="path-1"></path>
    </defs>
    <g id="部署" stroke="none" stroke-width="1" fill="none" fill-rule="evenodd">
        <g transform="translate(-953.000000, -339.000000)" id="table">
            <g transform="translate(278.000000, 174.000000)">
                <g id="部署历史记录" transform="translate(0.000000, 154.016667)">
                    <g id="编组" transform="translate(675.000000, 9.316667)">
                        <g id="icon/本项目" transform="translate(0.000000, 2.133333)">
                            <rect id="矩形" fill="#000000" fill-rule="nonzero" opacity="0" x="0" y="0" width="16" height="16"></rect>
                            <path d="M0.8,8 C0.8,11.9764502 4.0235498,15.2 8,15.2 C11.9764502,15.2 15.2,11.9764502 15.2,8 C15.2,4.0235498 11.9764502,0.8 8,0.8 C4.0235498,0.8 0.8,4.0235498 0.8,8 Z" id="路径" fill-opacity="0.2" fill="#7BB1FF" fill-rule="nonzero"></path>
                            <g id="编组-10备份-3" transform="translate(4.040000, 3.200000)">
                                <path d="M4.90308601,2.72897129 L6.67733271,0.282229258 C6.89608579,-0.0194381179 7.32333898,-0.0904631502 7.63162943,0.123590409 C7.81252055,0.249187517 7.92,0.45276972 7.92,0.669807513 L7.92,8.70782169 C7.92,9.07771644 7.6135577,9.37757538 7.23554195,9.37757538 C6.97138046,9.37757538 6.73079833,9.22882835 6.61738111,8.99537915 L4.69753765,5.04372236 C4.33263906,4.29264343 4.41126518,3.40720772 4.90308601,2.72897129 Z" id="Fill-9" fill="#7BB1FF" fill-rule="nonzero"></path>
                                <g id="形状-Clipped" transform="translate(0.000000, 0.044799)">
                                    <mask id="mask-2" fill="white">
                                        <use xlink:href="#path-1"></use>
                                    </mask>
                                    <g id="path-1"></g>
                                    <path d="M-0.324705125,-0.341429577 L-0.202314373,-0.704925178 L7.39969149,1.74591057 L7.27730075,2.10940618 L-0.324705125,-0.341429577 Z M-0.324705125,0.521133103 L-0.202314373,0.157637502 L7.39969149,2.60847326 L7.27730075,2.97196886 L-0.324705125,0.521133103 Z M-0.324705125,1.38369578 L-0.202314373,1.02020018 L7.39969149,3.47103595 L7.27730075,3.83453153 L-0.324705125,1.38369578 Z M-0.324705125,2.24625846 L-0.202314373,1.88276287 L7.39969149,4.33359862 L7.27730075,4.69709422 L-0.324705125,2.24625846 Z M-0.324705125,3.10882114 L-0.202314373,2.74532554 L7.39969149,5.1961613 L7.27730075,5.55965691 L-0.324705125,3.10882114 Z M-0.324705125,3.97138383 L-0.202314373,3.60788823 L7.39969149,6.05872397 L7.27730075,6.42221958 L-0.324705125,3.97138383 Z M-0.324705125,4.8339465 L-0.202314373,4.4704509 L7.39969149,6.92128666 L7.27730075,7.28478226 L-0.324705125,4.8339465 Z M-0.324705125,5.69650919 L-0.202314373,5.33301358 L7.39969149,7.78384935 L7.27730075,8.14734493 L-0.324705125,5.69650919 Z M-0.324705125,6.55907186 L-0.202314373,6.19557627 L7.39969149,8.64641202 L7.27730075,9.00990762 L-0.324705125,6.55907186 Z M-0.324705125,7.42163455 L-0.202314373,7.05813894 L7.39969149,9.5089747 L7.27730075,9.87247031 L-0.324705125,7.42163455 Z M-0.324705125,8.28419723 L-0.202314373,7.92070163 L7.39969149,10.3715374 L7.27730075,10.735033 L-0.324705125,8.28419723 Z M-0.324705125,9.1467599 L-0.202314373,8.7832643 L7.39969149,11.2341001 L7.27730075,11.5975957 L-0.324705125,9.1467599 Z" id="形状" fill="#2263D9" fill-rule="nonzero" mask="url(#mask-2)"></path>
                                </g>
                            </g>
                        </g>
                    </g>
                </g>
            </g>
        </g>
    </g>
</svg>