<svg xmlns="http://www.w3.org/2000/svg" width="16" height="16" viewBox="0 0 16 16">
  <g fill="none">
    <rect width="16" height="16" fill="#000" opacity="0"/>
    <path fill="#A15FDE" d="M14.0952381,4.91428572 L14.0952381,13.3333333 C14.0952381,14.1749101 13.4130053,14.8571429 12.5714286,14.8571429 L3.42857142,14.8571429 C2.58699466,14.8571429 1.90476191,14.1749101 1.90476191,13.3333333 L1.90476191,2.66666667 C1.90476191,1.82508991 2.58699466,1.14285714 3.42857142,1.14285714 L10.3238095,1.14285714 L14.0952381,4.91428572 Z"/>
    <path fill="#C386F0" d="M10.3238095,3.77142858 L10.3238095,1.14285714 L14.0952381,4.91428572 L11.4666667,4.91428572 C10.8354841,4.91428572 10.3238095,4.40261115 10.3238095,3.77142858 L10.3238095,3.77142858 Z"/>
    <path fill="#FFF" d="M4.95238095,8.76190477 C4.95238095,9.8507142 5.53325383,10.8568156 6.47619046,11.4012203 C7.41912708,11.9456251 8.58087292,11.9456251 9.52380954,11.4012203 C10.4667462,10.8568156 11.047619,9.8507142 11.047619,8.76190477 C11.047619,7.67309534 10.4667462,6.66699393 9.52380954,6.12258921 C8.58087292,5.57818449 7.41912708,5.57818449 6.47619046,6.12258921 C5.53325384,6.66699393 4.95238095,7.67309534 4.95238095,8.76190477 L4.95238095,8.76190477 Z"/>
    <path fill="#A15FDE" d="M8.95238095 9.10857142C8.86321674 9.36291962 8.67497684 9.57039571 8.43047619 9.68380953L9.14666667 11.207619C9.79834612 10.906777 10.3029846 10.3582568 10.5485714 9.68380953L8.95238095 9.10857142zM7.32190477 8.76190477C7.32190477 9.13640642 7.62549834 9.44 8 9.44 8.37450166 9.44 8.67809523 9.13640642 8.67809523 8.76190477 8.67809523 8.38740311 8.37450166 8.08380953 8 8.08380953 7.62549834 8.08380953 7.32190477 8.38740311 7.32190477 8.76190477z"/>
    <path fill="#FFF" d="M7.66095237,8.76190477 C7.66095237,8.88303482 7.72557448,8.99496361 7.83047618,9.05552864 C7.93537788,9.11609367 8.06462212,9.11609367 8.16952382,9.05552864 C8.27442552,8.99496361 8.33904762,8.88303482 8.33904762,8.76190477 C8.33904762,8.57465393 8.18725083,8.42285714 8,8.42285714 C7.81274917,8.42285714 7.66095237,8.57465393 7.66095237,8.76190477 L7.66095237,8.76190477 Z"/>
    <path fill="#A15FDE" d="M5.45142858,7.83619047 C5.69701536,7.16174315 6.20165388,6.61322301 6.85333333,6.31238095 L7.56952381,7.83619047 C7.32502316,7.94960429 7.13678326,8.15708038 7.04761905,8.41142858 L5.45142858,7.83619047 Z"/>
  </g>
</svg>
