<svg xmlns="http://www.w3.org/2000/svg" width="16" height="16" viewBox="0 0 16 16">
  <g fill="none">
    <rect width="16" height="16" fill="#000" opacity="0"/>
    <path fill="red" d="M8.72,7.376 C9.472,8.208 8.512,8.992 8.512,8.992 C8.512,8.992 10.384,8.032 9.536,6.816 C8.736,5.696 8.112,5.136 11.456,3.184 C11.456,3.2 6.208,4.528 8.72,7.376"/>
    <path fill="red" d="M9.536,0.08 C9.536,0.08 11.12,1.664 8.032,4.112 C5.568,6.08 7.472,7.2 8.032,8.496 C6.576,7.184 5.536,6.032 6.24,4.96 C7.248,3.376 10.176,2.608 9.536,0.08"/>
    <path fill="#69F" d="M11.264,11.84 C14.128,10.352 12.8,8.896 11.888,9.104 C11.648,9.152 11.552,9.184 11.552,9.184 C11.552,9.184 11.632,9.056 11.808,9.008 C13.648,8.368 15.056,10.896 11.216,11.92 C11.2,11.92 11.248,11.872 11.264,11.84 M5.984,12.448 C5.984,12.448 5.392,12.784 6.4,12.912 C7.6,13.04 8.24,13.04 9.568,12.784 C9.568,12.784 9.936,13.024 10.4,13.2 C7.408,14.464 3.632,13.12 5.984,12.448 M5.616,10.784 C5.616,10.784 4.944,11.28 5.984,11.376 C7.28,11.504 8.32,11.536 10.064,11.168 C10.064,11.168 10.32,11.424 10.704,11.552 C7.088,12.624 3.04,11.632 5.616,10.784"/>
    <path fill="#69F" d="M12.672,13.696 C12.672,13.696 13.104,14.064 12.176,14.336 C10.432,14.88 4.976,15.04 3.456,14.368 C2.912,14.128 3.952,13.808 4.256,13.728 C4.592,13.648 4.8,13.68 4.8,13.68 C4.192,13.232 0.864,14.496 3.12,14.864 C9.216,15.84 14.256,14.416 12.672,13.696 M6.256,9.04 C6.256,9.04 3.472,9.712 5.264,9.92 C6.032,10.016 7.552,10 8.944,9.872 C10.096,9.776 11.248,9.568 11.248,9.568 C11.248,9.568 10.832,9.744 10.544,9.952 C7.712,10.704 2.256,10.368 3.824,9.584 C5.2,8.96 6.256,9.04 6.256,9.04"/>
    <path fill="#69F" d="M6.544,15.872 C9.296,16.048 13.52,15.776 13.632,14.464 C13.632,14.464 13.424,14.96 11.344,15.344 C8.992,15.776 6.08,15.728 4.368,15.44 C4.4,15.456 4.752,15.76 6.544,15.872"/>
  </g>
</svg>
