<?xml version="1.0" encoding="UTF-8"?>
<svg width="20px" height="20px" viewBox="0 0 20 20" version="1.1" xmlns="http://www.w3.org/2000/svg" xmlns:xlink="http://www.w3.org/1999/xlink">
    <title>切片</title>
    <g id="部署" stroke="none" stroke-width="1" fill="none" fill-rule="evenodd">
        <g id="资源视图-chart应用列表" transform="translate(-1191.000000, -344.000000)">
            <g id="数据展示/Table表格/基本" transform="translate(512.000000, 222.000000)">
                <g id="td/chart应用" transform="translate(0.000000, 112.000000)">
                    <g id="icon/市场" transform="translate(679.000000, 10.000000)">
                        <rect id="矩形" fill="#000000" fill-rule="nonzero" opacity="0" x="0" y="0" width="20" height="20"></rect>
                        <path d="M1,10 C1,14.9705627 5.02943725,19 10,19 C14.9705627,19 19,14.9705627 19,10 C19,5.02943725 14.9705627,1 10,1 C5.02943725,1 1,5.02943725 1,10 Z" id="路径" fill="#E3F6FF" fill-rule="nonzero"></path>
                        <g id="shopping_bag_black_24dp" transform="translate(3.000000, 2.594551)">
                            <rect id="矩形" x="0" y="0" width="14" height="14"></rect>
                            <path d="M10.5,11.6666667 L3.5,11.6666667 L3.5,4.66666667 L4.66666667,4.66666667 L4.66666667,5.83333333 C4.66666667,6.15416667 4.92916667,6.41666667 5.25,6.41666667 C5.57083333,6.41666667 5.83333333,6.15416667 5.83333333,5.83333333 L5.83333333,4.66666667 L8.16666667,4.66666667 L8.16666667,5.83333333 C8.16666667,6.15416667 8.42916667,6.41666667 8.75,6.41666667 C9.07083333,6.41666667 9.33333333,6.15416667 9.33333333,5.83333333 L9.33333333,4.66666667 L10.5,4.66666667 L10.5,11.6666667 Z" id="路径" fill="#37B1EC" fill-rule="nonzero" opacity="0.3"></path>
                            <path d="M10.5,3.5 L9.33333333,3.5 C9.33333333,2.21083333 8.28916667,1.16666667 7,1.16666667 C5.71083333,1.16666667 4.66666667,2.21083333 4.66666667,3.5 L3.5,3.5 C2.85833333,3.5 2.33333333,4.025 2.33333333,4.66666667 L2.33333333,11.6666667 C2.33333333,12.3083333 2.85833333,12.8333333 3.5,12.8333333 L10.5,12.8333333 C11.1416667,12.8333333 11.6666667,12.3083333 11.6666667,11.6666667 L11.6666667,4.66666667 C11.6666667,4.025 11.1416667,3.5 10.5,3.5 Z M7,2.33333333 C7.64166667,2.33333333 8.16666667,2.85833333 8.16666667,3.5 L5.83333333,3.5 C5.83333333,2.85833333 6.35833333,2.33333333 7,2.33333333 Z M10.5,11.6666667 L3.5,11.6666667 L3.5,4.66666667 L4.66666667,4.66666667 L4.66666667,5.83333333 C4.66666667,6.15416667 4.92916667,6.41666667 5.25,6.41666667 C5.57083333,6.41666667 5.83333333,6.15416667 5.83333333,5.83333333 L5.83333333,4.66666667 L8.16666667,4.66666667 L8.16666667,5.83333333 C8.16666667,6.15416667 8.42916667,6.41666667 8.75,6.41666667 C9.07083333,6.41666667 9.33333333,6.15416667 9.33333333,5.83333333 L9.33333333,4.66666667 L10.5,4.66666667 L10.5,11.6666667 Z" id="形状" fill="#37B1EC" fill-rule="nonzero"></path>
                        </g>
                    </g>
                </g>
            </g>
        </g>
    </g>
</svg>