<?xml version="1.0" encoding="UTF-8"?>
<svg width="20px" height="20px" viewBox="0 0 20 20" version="1.1" xmlns="http://www.w3.org/2000/svg" xmlns:xlink="http://www.w3.org/1999/xlink">
    <title>切片</title>
    <defs>
        <path d="M7.07405489,1.46556189 L8.53961678,2.93112377 L7.07405489,4.39668566 L5.60849301,2.93112377 L7.07405489,1.46556189 M3.10719834,1.71413775 L3.10719834,3.78560331 L1.03573278,3.78560331 L1.03573278,1.71413775 L3.10719834,1.71413775 M8.28586225,6.89280166 L8.28586225,8.96426722 L6.21439669,8.96426722 L6.21439669,6.89280166 L8.28586225,6.89280166 M3.10719834,6.89280166 L3.10719834,8.96426722 L1.03573278,8.96426722 L1.03573278,6.89280166 L3.10719834,6.89280166 M7.07405489,0 L4.14293112,2.92594511 L7.07405489,5.85706888 L10.0051787,2.92594511 L7.07405489,0 Z M4.14293112,0.678404972 L0,0.678404972 L0,4.8213361 L4.14293112,4.8213361 L4.14293112,0.678404972 Z M9.32159503,5.85706888 L5.1786639,5.85706888 L5.1786639,10 L9.32159503,10 L9.32159503,5.85706888 Z M4.14293112,5.85706888 L0,5.85706888 L0,10 L4.14293112,10 L4.14293112,5.85706888 Z" id="path-1"></path>
    </defs>
    <g id="部署" stroke="none" stroke-width="1" fill="none" fill-rule="evenodd">
        <g id="资源视图-chart应用列表" transform="translate(-1191.000000, -262.000000)">
            <g id="数据展示/Table表格/基本" transform="translate(512.000000, 222.000000)">
                <g id="td/chart应用" transform="translate(0.000000, 30.000000)">
                    <g id="icon/本项目" transform="translate(679.000000, 10.000000)">
                        <rect id="矩形" fill="#000000" fill-rule="nonzero" opacity="0" x="0" y="0" width="20" height="20"></rect>
                        <path d="M1,10 C1,14.9705627 5.02943725,19 10,19 C14.9705627,19 19,14.9705627 19,10 C19,5.02943725 14.9705627,1 10,1 C5.02943725,1 1,5.02943725 1,10 Z" id="路径" fill="#EBF2FF" fill-rule="nonzero"></path>
                        <g id="编组" transform="translate(4.997411, 5.000000)">
                            <polyline id="路径" fill-opacity="0.2" fill="#4D90FE" points="7.07405489 1.46556189 8.53961678 2.93112377 7.07405489 4.39668566 5.60849301 2.93112377 7.07405489 1.46556189"></polyline>
                            <polyline id="路径" fill-opacity="0.2" fill="#4D90FE" points="3.10719834 1.71413775 3.10719834 3.78560331 1.03573278 3.78560331 1.03573278 1.71413775 3.10719834 1.71413775"></polyline>
                            <polyline id="路径" fill-opacity="0.2" fill="#4D90FE" points="8.28586225 6.89280166 8.28586225 8.96426722 6.21439669 8.96426722 6.21439669 6.89280166 8.28586225 6.89280166"></polyline>
                            <polyline id="路径" fill-opacity="0.2" fill="#4D90FE" points="3.10719834 6.89280166 3.10719834 8.96426722 1.03573278 8.96426722 1.03573278 6.89280166 3.10719834 6.89280166"></polyline>
                            <mask id="mask-2" fill="white">
                                <use xlink:href="#path-1"></use>
                            </mask>
                            <use id="蒙版" fill="#4D90FE" fill-rule="nonzero" xlink:href="#path-1"></use>
                        </g>
                    </g>
                </g>
            </g>
        </g>
    </g>
</svg>