<?xml version="1.0" encoding="UTF-8"?>
<svg width="20px" height="20px" viewBox="0 0 20 20" version="1.1" xmlns="http://www.w3.org/2000/svg" xmlns:xlink="http://www.w3.org/1999/xlink">
    <title>切片</title>
    <g id="部署" stroke="none" stroke-width="1" fill="none" fill-rule="evenodd">
        <g id="资源视图-chart应用列表" transform="translate(-1191.000000, -303.000000)">
            <g id="数据展示/Table表格/基本" transform="translate(512.000000, 222.000000)">
                <g id="td/chart应用" transform="translate(0.000000, 71.000000)">
                    <g id="icon/共享" transform="translate(679.000000, 10.000000)">
                        <rect id="矩形" fill="#6887E8" fill-rule="nonzero" opacity="0" x="0" y="0" width="20" height="20"></rect>
                        <path d="M1,10 C1,14.9705627 5.02943725,19 10,19 C14.9705627,19 19,14.9705627 19,10 C19,5.02943725 14.9705627,1 10,1 C5.02943725,1 1,5.02943725 1,10 Z" id="路径" fill="#EBF2FF" fill-rule="nonzero"></path>
                        <g id="share_black_24dp" transform="translate(2.904635, 3.500000)">
                            <polygon id="路径" points="0 0 13 0 13 13 0 13"></polygon>
                            <circle id="椭圆形" fill="#6887E8" fill-rule="nonzero" opacity="0.3" cx="9.75" cy="2.70833333" r="1"></circle>
                            <circle id="椭圆形" fill="#6887E8" fill-rule="nonzero" opacity="0.3" cx="3.25" cy="6.5" r="1"></circle>
                            <circle id="椭圆形" fill="#6887E8" fill-rule="nonzero" opacity="0.3" cx="9.75" cy="10.3025" r="1"></circle>
                            <path d="M9.75,8.71 C9.33833333,8.71 8.97,8.8725 8.68833333,9.12708333 L4.82625,6.87916667 C4.85333333,6.75458333 4.875,6.63 4.875,6.5 C4.875,6.37 4.85333333,6.24541667 4.82625,6.12083333 L8.645,3.89458333 C8.9375,4.16541667 9.32208333,4.33333333 9.75,4.33333333 C10.6491667,4.33333333 11.375,3.6075 11.375,2.70833333 C11.375,1.80916667 10.6491667,1.08333333 9.75,1.08333333 C8.85083333,1.08333333 8.125,1.80916667 8.125,2.70833333 C8.125,2.83833333 8.14666667,2.96291667 8.17375,3.0875 L4.355,5.31375 C4.0625,5.04291667 3.67791667,4.875 3.25,4.875 C2.35083333,4.875 1.625,5.60083333 1.625,6.5 C1.625,7.39916667 2.35083333,8.125 3.25,8.125 C3.67791667,8.125 4.0625,7.95708333 4.355,7.68625 L8.21166667,9.93958333 C8.18458333,10.0533333 8.16833333,10.1725 8.16833333,10.2916667 C8.16833333,11.16375 8.87791667,11.8733333 9.75,11.8733333 C10.6220833,11.8733333 11.3316667,11.16375 11.3316667,10.2916667 C11.3316667,9.41958333 10.6220833,8.71 9.75,8.71 Z M9.75,2.16666667 C10.0479167,2.16666667 10.2916667,2.41041667 10.2916667,2.70833333 C10.2916667,3.00625 10.0479167,3.25 9.75,3.25 C9.45208333,3.25 9.20833333,3.00625 9.20833333,2.70833333 C9.20833333,2.41041667 9.45208333,2.16666667 9.75,2.16666667 Z M3.25,7.04166667 C2.95208333,7.04166667 2.70833333,6.79791667 2.70833333,6.5 C2.70833333,6.20208333 2.95208333,5.95833333 3.25,5.95833333 C3.54791667,5.95833333 3.79166667,6.20208333 3.79166667,6.5 C3.79166667,6.79791667 3.54791667,7.04166667 3.25,7.04166667 Z M9.75,10.8441667 C9.45208333,10.8441667 9.20833333,10.6004167 9.20833333,10.3025 C9.20833333,10.0045833 9.45208333,9.76083333 9.75,9.76083333 C10.0479167,9.76083333 10.2916667,10.0045833 10.2916667,10.3025 C10.2916667,10.6004167 10.0479167,10.8441667 9.75,10.8441667 Z" id="形状" fill="#5365EA" fill-rule="nonzero"></path>
                        </g>
                    </g>
                </g>
            </g>
        </g>
    </g>
</svg>