<?xml version="1.0" encoding="UTF-8"?>
<svg width="214px" height="133px" viewBox="0 0 214 133" version="1.1" xmlns="http://www.w3.org/2000/svg" xmlns:xlink="http://www.w3.org/1999/xlink">
    <title>ç¼–ç»„</title>
    <defs>
        <linearGradient x1="0%" y1="50%" x2="100%" y2="50%" id="linearGradient-1">
            <stop stop-color="#5365EA" stop-opacity="0.24" offset="0%"></stop>
            <stop stop-color="#FFFFFF" stop-opacity="0" offset="100%"></stop>
        </linearGradient>
        <path d="M9.16666667,0 L7.33333333,0 L7.33333333,9.16666667 L9.16666667,9.16666667 L9.16666667,0 Z M13.5941667,1.98916667 L12.2925,3.29083333 C13.7408333,4.455 14.6666667,6.2425 14.6666667,8.25 C14.6666667,11.7975 11.7975,14.6666667 8.25,14.6666667 C4.7025,14.6666667 1.83333333,11.7975 1.83333333,8.25 C1.83333333,6.2425 2.75916667,4.455 4.19833333,3.28166667 L2.90583333,1.98916667 C1.1275,3.50166667 0,5.73833333 0,8.25 C0,12.8058333 3.69416667,16.5 8.25,16.5 C12.8058333,16.5 16.5,12.8058333 16.5,8.25 C16.5,5.73833333 15.3725,3.50166667 13.5941667,1.98916667 Z" id="path-2"></path>
    </defs>
    <g id="ç¼ºçœ" stroke="none" stroke-width="1" fill="none" fill-rule="evenodd">
        <g id="èµ„æºè§†å›¾-chartåº”ç”¨è¯¦æƒ…-åº”ç”¨ç›‘æŽ§æœªå¼€å¯" transform="translate(-855.000000, -278.000000)">
            <g id="ç¼–ç»„" transform="translate(856.000000, 279.189312)">
                <line x1="4.59701721e-17" y1="130.075" x2="212" y2="130.075" id="ç›´çº¿" stroke="#0F1358" stroke-linecap="square"></line>
                <g id="ç¼–ç»„-4" transform="translate(13.300000, 112.700000)">
                    <rect id="çŸ©å½¢" stroke="#0F1358" fill="#E7EFFF" x="0" y="0" width="47.25" height="16.5" rx="2"></rect>
                    <polygon id="çŸ©å½¢" fill-opacity="0.12" fill="#5365EA" points="14.35 0.110687555 47.25 0.175 47.25 16.675 3.15 16.675"></polygon>
                    <circle id="æ¤­åœ†å½¢" fill="#5365EA" cx="7.55" cy="8.25" r="3"></circle>
                </g>
                <rect id="çŸ©å½¢" fill="#C0D6FF" x="165.893229" y="77.375" width="32" height="52" rx="4"></rect>
                <line x1="172.75" y1="87.375" x2="190.75" y2="87.375" id="ç›´çº¿-6" stroke="#FFFFFF" stroke-width="2" stroke-linecap="round"></line>
                <line x1="172.75" y1="95.375" x2="190.75" y2="95.375" id="ç›´çº¿-6" stroke="#FFFFFF" stroke-width="2" stroke-linecap="round"></line>
                <line x1="172.75" y1="103.375" x2="190.75" y2="103.375" id="ç›´çº¿-6" stroke="#FFFFFF" stroke-width="2" stroke-linecap="round"></line>
                <line x1="181.75" y1="111.375" x2="190.75" y2="111.375" id="ç›´çº¿-6" stroke="#FFFFFF" stroke-width="2" stroke-linecap="round"></line>
                <line x1="181.75" y1="119.375" x2="190.75" y2="119.375" id="ç›´çº¿-6" stroke="#FFFFFF" stroke-width="2" stroke-linecap="round"></line>
                <path d="M61.85,32.425 L149.85,32.425 C158.686556,32.425 165.85,39.588444 165.85,48.425 L165.85,122.425 L165.85,122.425 L45.85,122.425 L45.85,48.425 C45.85,39.588444 53.013444,32.425 61.85,32.425 Z" id="çŸ©å½¢" stroke="#0F1358" fill="#E7EFFF"></path>
                <path d="M148.85,40.925 C151.19721,40.925 153.32221,41.8763949 154.860408,43.4145924 C156.398605,44.9527898 157.35,47.0777898 157.35,49.425 L157.35,49.425 L157.35,123.925 L54.35,123.925 L54.35,49.425 C54.35,47.0777898 55.3013949,44.9527898 56.8395924,43.4145924 C58.3777898,41.8763949 60.5027898,40.925 62.85,40.925 L62.85,40.925 Z" id="çŸ©å½¢" stroke="#0F1358" fill="#FFFFFF"></path>
                <polyline id="ç›´çº¿-4" stroke="#0F1358" stroke-width="1.5" stroke-linecap="square" points="68.3 66.3106876 68.3 104.310688 143.8 104.310688"></polyline>
                <path d="M75.65,93.8106876 C78.3166667,78.4773542 82.65,70.8106876 88.65,70.8106876 C97.65,70.8106876 104.420426,88.0270005 113.65,93.8106876 C119.803049,97.6664789 127.803049,92.6664789 137.65,78.8106876" id="ç›´çº¿-5" stroke="#6580FE" stroke-width="1.5" stroke-linecap="square" transform="translate(106.650000, 82.940239) scale(1, -1) translate(-106.650000, -82.940239) "></path>
                <rect id="çŸ©å½¢" stroke="#0F1358" fill="#FFFFFF" x="36.05" y="117.825" width="140" height="12.6" rx="6"></rect>
                <rect id="çŸ©å½¢" fill="url(#linearGradient-1)" x="13.3" y="124.3" width="140" height="5.6"></rect>
                <path d="M104.65,117.825 L122.5,117.825 C122.5,121.304394 119.679394,124.125 116.2,124.125 L104.65,124.125 L104.65,124.125 L104.65,117.825 Z" id="çŸ©å½¢" fill-opacity="0.12" fill="#5365EA"></path>
                <path d="M86.1,117.825 L122.5,117.825 C122.5,121.304394 119.679394,124.125 116.2,124.125 L92.4,124.125 C88.9206061,124.125 86.1,121.304394 86.1,117.825 L86.1,117.825 L86.1,117.825 Z" id="çŸ©å½¢" stroke="#0F1358"></path>
                <path d="M63.0524996,41.425 L149.0475,41.425 C153.38789,41.425 156.936526,44.8860282 157.045002,49.2250625 L157.15,53.425 L157.15,53.425 L55.15,53.425 L55.0549984,49.6249375 C54.944576,45.2080396 58.4356641,41.5379213 62.8525621,41.4274988 C62.9191949,41.425833 62.985846,41.425 63.0524996,41.425 Z" id="çŸ©å½¢" fill="#C0C4FD"></path>
                <circle id="æ¤­åœ†å½¢" fill="#FFFFFF" cx="64.75" cy="47.825" r="2.1"></circle>
                <circle id="æ¤­åœ†å½¢" fill-opacity="0.65" fill="#5365EA" cx="73.15" cy="47.825" r="2.1"></circle>
                <circle id="æ¤­åœ†å½¢" fill="#5365EA" cx="81.55" cy="47.825" r="2.1"></circle>
                <g id="ç¼–ç»„-14" transform="translate(22.750000, 83.940239)">
                    <path d="M31.3430861,-3.55271368e-15 L31.3430861,29.8295211 C26.6291599,26.5498251 23.5437549,21.0926103 23.5437549,14.9147605 C23.5437549,8.73691079 26.6291599,3.279696 31.3430861,-2.66453526e-15 Z" id="å½¢çŠ¶ç»“åˆ" fill-opacity="0.2" fill="#5365EA" transform="translate(27.443421, 14.914761) scale(-1, 1) translate(-27.443421, -14.914761) "></path>
                    <circle id="æ¤­åœ†å½¢" stroke="#323288" fill="#FFFFFF" cx="13.1863289" cy="14.9147605" r="13.1863289"></circle>
                    <g id="ç¼–ç»„" transform="translate(2.186329, 3.914761)">
                        <g id="ðŸŽ¨-Color" transform="translate(2.750000, 2.750000)">
                            <mask id="mask-3" fill="white">
                                <use xlink:href="#path-2"></use>
                            </mask>
                            <use id="è’™ç‰ˆ" fill="#000000" fill-rule="nonzero" xlink:href="#path-2"></use>
                            <g id="ç¼–ç»„" mask="url(#mask-3)">
                                <g transform="translate(-2.750000, -2.750000)" id="ðŸŽ¨-Color">
                                    <rect id="å½¢çŠ¶" fill="#5365EA" x="0" y="0" width="22" height="22"></rect>
                                </g>
                            </g>
                        </g>
                    </g>
                </g>
                <g id="ç¼–ç»„-21" transform="translate(137.650000, 0.000000)">
                    <line x1="0" y1="4.47457627" x2="8.94915254" y2="4.47457627" id="ç›´çº¿-8" stroke="#5365EA" stroke-width="1.5" stroke-linecap="square"></line>
                    <line x1="3.53839887e-14" y1="4.47457627" x2="8.94915254" y2="4.47457627" id="ç›´çº¿-8" stroke="#5365EA" stroke-width="1.5" stroke-linecap="square" transform="translate(4.474576, 4.474576) rotate(90.000000) translate(-4.474576, -4.474576) "></line>
                    <polygon id="çŸ©å½¢" fill="#5365EA" transform="translate(4.474576, 4.474576) rotate(45.000000) translate(-4.474576, -4.474576) " points="1.49152542 1.49152542 7.45762712 1.49152542 7.45762712 7.45762712 1.49152542 7.45762712"></polygon>
                </g>
                <g id="ç¼–ç»„-21" transform="translate(156.307528, 17.525424)" stroke="#5365EA">
                    <line x1="0" y1="2.23728814" x2="4.47457627" y2="2.23728814" id="ç›´çº¿-8" stroke-width="1.5" stroke-linecap="square"></line>
                    <polygon id="çŸ©å½¢" fill="#5365EA" transform="translate(2.237288, 2.237288) rotate(45.000000) translate(-2.237288, -2.237288) " points="0.93220339 0.93220339 3.54237288 0.93220339 3.54237288 3.54237288 0.93220339 3.54237288"></polygon>
                    <line x1="2.00555702e-14" y1="2.23728814" x2="4.47457627" y2="2.23728814" id="ç›´çº¿-8" stroke-width="1.5" stroke-linecap="square" transform="translate(2.237288, 2.237288) rotate(90.000000) translate(-2.237288, -2.237288) "></line>
                </g>
                <path d="M177.997218,20.8812977 C177.698913,20.8812977 177.400841,20.7675689 177.17315,20.5398782 L174.609591,17.9763189 C174.154442,17.5214036 174.154442,16.7835646 174.609591,16.3286494 L177.17315,13.76509 C177.628298,13.3099417 178.365904,13.3099417 178.821053,13.76509 L181.384612,16.3286494 C181.83976,16.7835646 181.83976,17.5214036 181.384612,17.9763189 L178.821053,20.5398782 C178.593595,20.7675689 178.295523,20.8812977 177.997218,20.8812977 Z M177.081561,17.1524841 L177.997218,18.0681409 L178.912875,17.1524841 L177.997218,16.2368273 L177.081561,17.1524841 Z" id="å½¢çŠ¶" fill="#5365EA" fill-rule="nonzero"></path>
                <path d="M0.608133257,57.425 L36.65,57.425 C36.4354651,55.0651159 35.4700579,53.8851738 33.7537786,53.8851738 C31.1793595,53.8851738 29.89215,55.1723833 29.2485452,55.1723833 C28.6049405,55.1723833 26.6741262,50.66715 23.4561024,50.0235452 C20.2380785,49.3799405 18.950869,51.9543595 17.6636595,51.9543595 C16.37645,51.9543595 17.0703771,47.9430114 10.5840071,50.0235452 C6.2597604,51.4105677 2.93446913,53.8777193 0.608133257,57.425 Z" id="ç›´çº¿-9" fill-opacity="0.32" fill="#D9E6F2"></path>
                <path d="M200.383684,65.012733 C198.735686,64.7544035 198.195464,64.1816461 198.194721,64.1816461 L198.145537,64.1294201 L198.145537,64.130319 C197.97024,63.9628535 197.910684,63.6661281 197.893708,63.4079714 C198.964592,62.583644 199.795592,61.0204765 199.795592,59.270827 C199.795592,56.4687393 197.921558,55.4467966 196.449341,55.4467966 C194.977452,55.4467966 193.083641,56.4687393 193.083641,59.270827 C193.083641,61.0204765 193.935646,62.5836439 195.006859,63.4086284 C194.990712,63.6653155 194.930741,63.9620237 194.754217,64.130319 L194.715994,64.1713427 C194.710393,64.1769439 194.172228,64.7535738 192.516485,65.0127331 C192.283534,65.02072 191.310843,65.1123273 190.891462,66.0584118 C190.660897,66.5787012 190.75463,66.9593582 190.874088,67.1859648 C191.157294,67.7251151 191.780463,67.7934878 191.934911,67.8032034 L200.898683,67.8032034 C201.115834,67.8032034 201.846255,67.7571491 202.119815,67.1604309 C202.236541,66.9077891 202.298483,66.4912083 201.938087,65.9410286 C201.4754,65.2362279 200.763425,65.0278943 200.383684,65.012733 Z M204.562267,64.5645332 C204.237294,64.0585061 203.736954,63.9090715 203.469808,63.8976963 C202.312019,63.7135135 201.932434,63.3024476 201.931604,63.3024476 L201.897755,63.2654693 C201.774684,63.1457004 201.732104,62.9316791 201.720815,62.7461652 C202.472984,62.1547025 203.006447,61.1154548 203.006447,59.8593162 C203.006447,57.8475339 201.706311,56.9180974 200.671766,56.9180974 C200.473079,56.9180974 200.269447,56.9485756 200.06993,57.0125745 C200.124628,57.1713962 200.172152,57.3362341 200.214835,57.5059989 L200.08765,57.5059989 C200.08765,57.5059989 200.806955,59.8709162 199.946946,61.8879539 C199.905836,61.8442161 199.864812,61.8050077 199.825362,61.7551674 C199.698263,62.0138254 199.554343,62.2512368 199.394951,62.4659841 C199.488373,62.5680505 199.58655,62.6639278 199.691918,62.7461479 C199.680629,62.9309185 199.637964,63.1440234 199.51325,63.2647777 L199.486645,63.2944261 C199.484345,63.2968118 199.273626,63.5245075 198.694282,63.7175934 C199.115876,63.7624895 199.556833,63.8286321 199.983043,63.9202394 C199.994418,63.909037 200.003961,63.8976617 200.012034,63.8896748 C200.035424,63.8654548 200.053956,63.8398345 200.075704,63.8140586 C200.15445,63.8559811 200.249359,63.9064784 200.379673,63.9780666 C201.038592,64.3401048 202.22686,64.9353535 202.422418,65.1548895 L202.391767,65.1548895 C202.604958,65.4164345 202.796471,65.7172743 202.942863,66.0375455 L203.881773,66.0375455 C204.034578,66.0375455 204.497196,65.8685932 204.68947,65.4413979 L204.690213,65.4413979 C204.7715,65.2587192 204.815721,64.9595216 204.562267,64.5645332 Z" id="å½¢çŠ¶" fill="#D9E6F2" fill-rule="nonzero" opacity="0.32"></path>
                <path d="M170.844767,39.625 L202.3814,39.625 C202.193682,37.5601014 201.348951,36.5276521 199.847206,36.5276521 C197.59459,36.5276521 196.468281,37.6539604 195.905127,37.6539604 C195.341973,37.6539604 193.65251,33.7118812 190.83674,33.1487271 C188.020969,32.5855729 186.89466,34.8381896 185.768352,34.8381896 C184.642044,34.8381896 185.24923,31.32826 179.573656,33.1487271 C175.78994,34.3623718 172.880311,36.5211294 170.844767,39.625 Z" id="ç›´çº¿-9" fill-opacity="0.32" fill="#D9E6F2"></path>
                <path d="M53.4973827,19.7627119 L97.881164,19.7627119 C96.1455051,17.7288603 94.220919,16.7119346 92.1074056,16.7119346 C88.9371355,16.7119346 85.8513716,18.4740849 85.0588041,18.4740849 C84.2662365,18.4740849 83.7351906,14.9497842 79.772353,14.068709 C75.8095153,13.1876338 74.3088865,15.8308594 72.7237515,15.8308594 C71.1386164,15.8308594 68.3763436,8.57729648 60.3886989,11.4254834 C55.0636023,13.3242747 52.766497,16.1033509 53.4973827,19.7627119 Z" id="ç›´çº¿-9" fill-opacity="0.32" fill="#D9E6F2"></path>
            </g>
        </g>
    </g>
</svg>