<?xml version="1.0" encoding="UTF-8"?>
<svg width="208px" height="123px" viewBox="0 0 208 123" version="1.1" xmlns="http://www.w3.org/2000/svg" xmlns:xlink="http://www.w3.org/1999/xlink">
    <title>Group 8</title>
    <g id="报表" stroke="none" stroke-width="1" fill="none" fill-rule="evenodd">
        <g id="运营-报表" transform="translate(-890.000000, -1957.000000)">
            <g id="所有报表－燃尽图" transform="translate(854.000000, 1915.000000)">
                <g id="Group" transform="translate(18.000000, 18.000000)">
                    <g id="Group-8" transform="translate(18.000000, 25.000000)">
                        <g id="编组" transform="translate(0.000000, 96.000000)" fill="#000000" fill-opacity="0.08">
                            <g id="Rectangle-4">
                                <rect x="0" y="0" width="90.4347826" height="9" rx="4"></rect>
                                <rect x="101.73913" y="0" width="45.2173913" height="9" rx="4"></rect>
                                <rect x="158.26087" y="0" width="49.7391304" height="9" rx="4"></rect>
                            </g>
                        </g>
                        <g id="编组" transform="translate(0.000000, 113.000000)" fill="#000000" fill-opacity="0.08">
                            <g id="Rectangle-4">
                                <rect x="0" y="0" width="90.4347826" height="9" rx="4"></rect>
                                <rect x="101.73913" y="0" width="45.2173913" height="9" rx="4"></rect>
                                <rect x="158.26087" y="0" width="49.7391304" height="9" rx="4"></rect>
                            </g>
                        </g>
                        <g id="Group-13">
                            <g id="Group-2" stroke-linecap="square">
                                <line x1="1.97156398" y1="78.5" x2="206.023674" y2="78.5" id="Line" stroke="#DFDFDF"></line>
                                <line x1="1.97156398" y1="58.5" x2="206.023674" y2="58.5" id="Line" stroke="#DFDFDF"></line>
                                <line x1="1.97156398" y1="39.5" x2="206.023674" y2="39.5" id="Line" stroke="#DFDFDF"></line>
                                <line x1="1.97156398" y1="19.5" x2="206.023674" y2="19.5" id="Line" stroke="#DFDFDF"></line>
                                <line x1="1.97156398" y1="0.5" x2="206.023674" y2="0.5" id="Line" stroke="#DFDFDF"></line>
                                <line x1="138.509513" y1="0" x2="138.509513" y2="80" id="Line-6" stroke-opacity="0.04" stroke="#000000"></line>
                                <line x1="1.48581633" y1="0" x2="1.48581633" y2="80" id="Line-6" stroke-opacity="0.04" stroke="#000000"></line>
                                <line x1="35.988186" y1="0" x2="35.988186" y2="80" id="Line-6" stroke-opacity="0.04" stroke="#000000"></line>
                                <line x1="172.026101" y1="0" x2="172.026101" y2="80" id="Line-6" stroke-opacity="0.04" stroke="#000000"></line>
                                <line x1="104.007143" y1="0" x2="104.007143" y2="80" id="Line-6" stroke-opacity="0.04" stroke="#000000"></line>
                                <line x1="206.52847" y1="0" x2="206.52847" y2="80" id="Line-6" stroke-opacity="0.04" stroke="#000000"></line>
                                <line x1="69.5047737" y1="0" x2="69.5047737" y2="80" id="Line-6" stroke-opacity="0.04" stroke="#000000"></line>
                            </g>
                            <g id="chart" transform="translate(25.000000, 8.000000)" fill-opacity="0.6">
                                <g id="Group-9">
                                    <path d="M2.84536735,0.329411765 L6.84536735,0.329411765 C7.94993685,0.329411765 8.84536735,1.22484227 8.84536735,2.32941176 L8.84536735,70.3294118 L8.84536735,70.3294118 L0.845367354,70.3294118 L0.845367354,2.32941176 C0.845367354,1.22484227 1.74079785,0.329411765 2.84536735,0.329411765 Z" id="Rectangle-3" fill="#1FC2BB"></path>
                                    <path d="M14.8453674,56.8294118 L18.8453674,56.8294118 C19.9499369,56.8294118 20.8453674,57.7248423 20.8453674,58.8294118 L20.8453674,70.3294118 L20.8453674,70.3294118 L12.8453674,70.3294118 L12.8453674,58.8294118 C12.8453674,57.7248423 13.7407979,56.8294118 14.8453674,56.8294118 Z" id="Rectangle-3" fill="#FD729C"></path>
                                    <path d="M36.3453674,35.6242815 L40.3453674,35.6242815 C41.4499369,35.6242815 42.3453674,36.519712 42.3453674,37.6242815 L42.3453674,70.3294118 L42.3453674,70.3294118 L34.3453674,70.3294118 L34.3453674,37.6242815 C34.3453674,36.519712 35.2407979,35.6242815 36.3453674,35.6242815 Z" id="Rectangle-3" fill="#1FC2BB"></path>
                                    <path d="M48.3453674,49.9294118 L52.3453674,49.9294118 C53.4499369,49.9294118 54.3453674,50.8248423 54.3453674,51.9294118 L54.3453674,70.3294118 L54.3453674,70.3294118 L46.3453674,70.3294118 L46.3453674,51.9294118 C46.3453674,50.8248423 47.2407979,49.9294118 48.3453674,49.9294118 Z" id="Rectangle-3" fill="#FD729C"></path>
                                    <path d="M71.3453674,22.3294118 L75.3453674,22.3294118 C76.4499369,22.3294118 77.3453674,23.2248423 77.3453674,24.3294118 L77.3453674,70.3294118 L77.3453674,70.3294118 L69.3453674,70.3294118 L69.3453674,24.3294118 C69.3453674,23.2248423 70.2407979,22.3294118 71.3453674,22.3294118 Z" id="Rectangle-3" fill="#1FC2BB"></path>
                                    <path d="M83.3453674,60.1294118 L87.3453674,60.1294118 C88.4499369,60.1294118 89.3453674,61.0248423 89.3453674,62.1294118 L89.3453674,70.3294118 L89.3453674,70.3294118 L81.3453674,70.3294118 L81.3453674,62.1294118 C81.3453674,61.0248423 82.2407979,60.1294118 83.3453674,60.1294118 Z" id="Rectangle-3" fill="#FD729C"></path>
                                    <path d="M105.845367,37.8294118 L109.845367,37.8294118 C110.949937,37.8294118 111.845367,38.7248423 111.845367,39.8294118 L111.845367,70.3294118 L111.845367,70.3294118 L103.845367,70.3294118 L103.845367,39.8294118 C103.845367,38.7248423 104.740798,37.8294118 105.845367,37.8294118 Z" id="Rectangle-3" fill="#1FC2BB"></path>
                                    <path d="M117.845367,54.3294118 L121.845367,54.3294118 C122.949937,54.3294118 123.845367,55.2248423 123.845367,56.3294118 L123.845367,70.3294118 L123.845367,70.3294118 L115.845367,70.3294118 L115.845367,56.3294118 C115.845367,55.2248423 116.740798,54.3294118 117.845367,54.3294118 Z" id="Rectangle-3" fill="#FD729C"></path>
                                    <path d="M139.345367,15.8294118 L143.345367,15.8294118 C144.449937,15.8294118 145.345367,16.7248423 145.345367,17.8294118 L145.345367,70.3294118 L145.345367,70.3294118 L137.345367,70.3294118 L137.345367,17.8294118 C137.345367,16.7248423 138.240798,15.8294118 139.345367,15.8294118 Z" id="Rectangle-3" fill="#1FC2BB"></path>
                                    <path d="M151.345367,58.8294118 L155.345367,58.8294118 C156.449937,58.8294118 157.345367,59.7248423 157.345367,60.8294118 L157.345367,70.3294118 L157.345367,70.3294118 L149.345367,70.3294118 L149.345367,60.8294118 C149.345367,59.7248423 150.240798,58.8294118 151.345367,58.8294118 Z" id="Rectangle-3" fill="#FD729C"></path>
                                </g>
                            </g>
                        </g>
                    </g>
                </g>
            </g>
        </g>
    </g>
</svg>