<?xml version="1.0" encoding="UTF-8"?>
<svg width="20px" height="20px" viewBox="0 0 20 20" version="1.1" xmlns="http://www.w3.org/2000/svg" xmlns:xlink="http://www.w3.org/1999/xlink">
    <title>icon/自定义仓库</title>
    <g id="icon/自定义仓库" stroke="none" stroke-width="1" fill="none" fill-rule="evenodd">
        <g id="icon/共享">
            <rect id="矩形" fill="#6887E8" fill-rule="nonzero" opacity="0" x="0" y="0" width="20" height="20"></rect>
            <path d="M1,10 C1,14.9705627 5.02943725,19 10,19 C14.9705627,19 19,14.9705627 19,10 C19,5.02943725 14.9705627,1 10,1 C5.02943725,1 1,5.02943725 1,10 Z" id="路径" fill-opacity="0.12" fill="#1FC2BB" fill-rule="nonzero"></path>
            <rect id="矩形" fill-opacity="0.2" fill="#1FC2BB" x="6" y="8" width="8" height="6"></rect>
            <g id="编组" transform="translate(5.000000, 4.750000)" fill="#1FC2BB" fill-rule="nonzero">
                <path d="M1,4.5 L2.5,4.5 L2.5,8 L1,8 L1,4.5 Z M4.25,4.5 L5.75,4.5 L5.75,8 L4.25,8 L4.25,4.5 Z M0,9 L10,9 L10,10.5 L0,10.5 L0,9 Z M7.5,4.5 L9,4.5 L9,8 L7.5,8 L7.5,4.5 Z M5,0 L0,2.5 L0,3.5 L10,3.5 L10,2.5 L5,0 Z" id="形状结合"></path>
            </g>
        </g>
    </g>
</svg>