<?xml version="1.0" encoding="UTF-8"?>
<svg width="22px" height="22px" viewBox="0 0 22 22" version="1.1" xmlns="http://www.w3.org/2000/svg" xmlns:xlink="http://www.w3.org/1999/xlink">
    <title>切片</title>
    <defs>
        <path d="M3.08714649,12.5277233 C2.75508259,12.9148099 2.2650613,13.1384008 1.74857902,13.1384008 C0.783288803,13.1384008 0.000712634591,12.3728072 0.000646223218,11.4282546 L0,2.23725733 C0,2.00145947 0.0380750433,1.76714247 0.112863462,1.54298836 C0.504629026,0.36879774 1.79498551,-0.272305916 2.99495532,0.111043267 L8.40003949,1.83778218 C8.66173967,1.92138641 8.90460748,2.05336689 9.11546134,2.22656042 C10.0254144,2.97398787 10.1438647,4.30171282 9.38002756,5.19211713 L3.08714649,12.5277233 Z" id="path-1"></path>
    </defs>
    <g id="部署" stroke="none" stroke-width="1" fill="none" fill-rule="evenodd">
        <g id="应用中心" transform="translate(-278.000000, -392.000000)">
            <g id="应用中心/item" transform="translate(266.000000, 376.000000)">
                <g id="icon/本项目" transform="translate(12.000000, 16.000000)">
                    <rect id="矩形" fill="#000000" fill-rule="nonzero" opacity="0" x="0" y="0" width="22" height="22"></rect>
                    <path d="M1.1,11 C1.1,16.467619 5.53238098,20.9 11,20.9 C16.467619,20.9 20.9,16.467619 20.9,11 C20.9,5.53238098 16.467619,1.1 11,1.1 C5.53238098,1.1 1.1,5.53238098 1.1,11 Z" id="路径" fill-opacity="0.2" fill="#7BB1FF" fill-rule="nonzero"></path>
                    <g id="编组-10备份-3" transform="translate(5.555000, 4.400000)">
                        <path d="M6.74174327,3.75233553 L9.18133248,0.38806523 C9.48211796,-0.0267274121 10.0695911,-0.124386832 10.4934905,0.169936812 C10.7422158,0.342632836 10.89,0.622558364 10.89,0.920985331 L10.89,11.9732548 C10.89,12.4818601 10.4686418,12.8941661 9.94887019,12.8941661 C9.58564814,12.8941661 9.2548477,12.689639 9.09889902,12.3686463 L6.45911427,6.93511824 C5.9573787,5.90238472 6.06548962,4.68491061 6.74174327,3.75233553 Z" id="Fill-9" fill="#7BB1FF" fill-rule="nonzero"></path>
                        <g id="形状-Clipped" transform="translate(0.000000, 0.061599)">
                            <mask id="mask-2" fill="white">
                                <use xlink:href="#path-1"></use>
                            </mask>
                            <g id="path-1"></g>
                            <path d="M-0.446469546,-0.469465669 L-0.278182264,-0.969272119 L10.1745758,2.40062704 L10.0062885,2.90043349 L-0.446469546,-0.469465669 Z M-0.446469546,0.716558016 L-0.278182264,0.216751566 L10.1745758,3.58665073 L10.0062885,4.08645719 L-0.446469546,0.716558016 Z M-0.446469546,1.9025817 L-0.278182264,1.40277525 L10.1745758,4.77267443 L10.0062885,5.27248086 L-0.446469546,1.9025817 Z M-0.446469546,3.08860538 L-0.278182264,2.58879895 L10.1745758,5.9586981 L10.0062885,6.45850455 L-0.446469546,3.08860538 Z M-0.446469546,4.27462907 L-0.278182264,3.77482262 L10.1745758,7.14472179 L10.0062885,7.64452825 L-0.446469546,4.27462907 Z M-0.446469546,5.46065277 L-0.278182264,4.96084631 L10.1745758,8.33074546 L10.0062885,8.83055192 L-0.446469546,5.46065277 Z M-0.446469546,6.64667644 L-0.278182264,6.14686998 L10.1745758,9.51676916 L10.0062885,10.0165756 L-0.446469546,6.64667644 Z M-0.446469546,7.83270013 L-0.278182264,7.33289368 L10.1745758,10.7027929 L10.0062885,11.2025993 L-0.446469546,7.83270013 Z M-0.446469546,9.0187238 L-0.278182264,8.51891737 L10.1745758,11.8888165 L10.0062885,12.388623 L-0.446469546,9.0187238 Z M-0.446469546,10.2047475 L-0.278182264,9.70494104 L10.1745758,13.0748402 L10.0062885,13.5746467 L-0.446469546,10.2047475 Z M-0.446469546,11.3907712 L-0.278182264,10.8909647 L10.1745758,14.2608639 L10.0062885,14.7606703 L-0.446469546,11.3907712 Z M-0.446469546,12.5767949 L-0.278182264,12.0769884 L10.1745758,15.4468876 L10.0062885,15.946694 L-0.446469546,12.5767949 Z" id="形状" fill="#2263D9" fill-rule="nonzero" mask="url(#mask-2)"></path>
                        </g>
                    </g>
                </g>
            </g>
        </g>
    </g>
</svg>