<?xml version="1.0" encoding="UTF-8"?>
<svg width="22px" height="22px" viewBox="0 0 22 22" version="1.1" xmlns="http://www.w3.org/2000/svg" xmlns:xlink="http://www.w3.org/1999/xlink">
    <title>icon/市场</title>
    <g id="部署" stroke="none" stroke-width="1" fill="none" fill-rule="evenodd">
        <g id="应用中心" transform="translate(-670.000000, -392.000000)">
            <g id="应用中心/item" transform="translate(658.000000, 376.000000)">
                <g id="icon/市场" transform="translate(12.000000, 16.000000)">
                    <rect id="矩形" fill="#000000" fill-rule="nonzero" opacity="0" x="0" y="0" width="22" height="22"></rect>
                    <path d="M1.1,11 C1.1,16.467619 5.53238098,20.9 11,20.9 C16.467619,20.9 20.9,16.467619 20.9,11 C20.9,5.53238098 16.467619,1.1 11,1.1 C5.53238098,1.1 1.1,5.53238098 1.1,11 Z" id="路径" fill="#E3F6FF" fill-rule="nonzero"></path>
                    <g id="shopping_bag_black_24dp" transform="translate(3.300000, 2.854006)">
                        <rect id="矩形" x="0" y="0" width="15.4" height="15.4"></rect>
                        <path d="M11.55,12.8333333 L3.85,12.8333333 L3.85,5.13333333 L5.13333333,5.13333333 L5.13333333,6.41666667 C5.13333333,6.76958333 5.42208333,7.05833333 5.775,7.05833333 C6.12791667,7.05833333 6.41666667,6.76958333 6.41666667,6.41666667 L6.41666667,5.13333333 L8.98333333,5.13333333 L8.98333333,6.41666667 C8.98333333,6.76958333 9.27208333,7.05833333 9.625,7.05833333 C9.97791667,7.05833333 10.2666667,6.76958333 10.2666667,6.41666667 L10.2666667,5.13333333 L11.55,5.13333333 L11.55,12.8333333 Z" id="路径" fill="#37B1EC" fill-rule="nonzero" opacity="0.3"></path>
                        <path d="M11.55,3.85 L10.2666667,3.85 C10.2666667,2.43191667 9.11808333,1.28333333 7.7,1.28333333 C6.28191667,1.28333333 5.13333333,2.43191667 5.13333333,3.85 L3.85,3.85 C3.14416667,3.85 2.56666667,4.4275 2.56666667,5.13333333 L2.56666667,12.8333333 C2.56666667,13.5391667 3.14416667,14.1166667 3.85,14.1166667 L11.55,14.1166667 C12.2558333,14.1166667 12.8333333,13.5391667 12.8333333,12.8333333 L12.8333333,5.13333333 C12.8333333,4.4275 12.2558333,3.85 11.55,3.85 Z M7.7,2.56666667 C8.40583333,2.56666667 8.98333333,3.14416667 8.98333333,3.85 L6.41666667,3.85 C6.41666667,3.14416667 6.99416667,2.56666667 7.7,2.56666667 Z M11.55,12.8333333 L3.85,12.8333333 L3.85,5.13333333 L5.13333333,5.13333333 L5.13333333,6.41666667 C5.13333333,6.76958333 5.42208333,7.05833333 5.775,7.05833333 C6.12791667,7.05833333 6.41666667,6.76958333 6.41666667,6.41666667 L6.41666667,5.13333333 L8.98333333,5.13333333 L8.98333333,6.41666667 C8.98333333,6.76958333 9.27208333,7.05833333 9.625,7.05833333 C9.97791667,7.05833333 10.2666667,6.76958333 10.2666667,6.41666667 L10.2666667,5.13333333 L11.55,5.13333333 L11.55,12.8333333 Z" id="形状" fill="#37B1EC" fill-rule="nonzero"></path>
                    </g>
                </g>
            </g>
        </g>
    </g>
</svg>