<?xml version="1.0" encoding="UTF-8"?>
<svg width="22px" height="22px" viewBox="0 0 22 22" version="1.1" xmlns="http://www.w3.org/2000/svg" xmlns:xlink="http://www.w3.org/1999/xlink">
    <title>icon/本项目</title>
    <g id="部署" stroke="none" stroke-width="1" fill="none" fill-rule="evenodd">
        <g id="应用中心" transform="translate(-1062.000000, -202.000000)" fill-rule="nonzero">
            <g id="应用中心/item" transform="translate(1050.000000, 186.000000)">
                <g id="icon/本项目" transform="translate(12.000000, 16.000000)">
                    <rect id="矩形" fill="#000000" opacity="0" x="0" y="0" width="22" height="22"></rect>
                    <path d="M1.1,11 C1.1,16.467619 5.53238098,20.9 11,20.9 C16.467619,20.9 20.9,16.467619 20.9,11 C20.9,5.53238098 16.467619,1.1 11,1.1 C5.53238098,1.1 1.1,5.53238098 1.1,11 Z" id="路径" fill="#EBF2FF"></path>
                    <g id="编组-4" transform="translate(5.555000, 4.950000)">
                        <path d="M4.40988281,6.87064941 L4.40988281,11.2805322 L4.4408921e-16,11.2805322 L4.4408921e-16,6.87064941 L4.40988281,6.87064941 Z M10.0297656,6.87064941 L10.0297656,11.2805322 L5.61988281,11.2805322 L5.61988281,6.87064941 L10.0297656,6.87064941 Z M4.40988281,1.21 L4.40988281,5.61988281 L0,5.61988281 L0,1.21 L4.40988281,1.21 Z" id="形状结合" fill="#377FFC"></path>
                        <path d="M8.34775805,5.94375197 C8.21616456,5.94375197 8.08725665,5.89272592 7.98789014,5.79335941 L5.96564737,3.77111664 C5.76691435,3.57238361 5.76691435,3.25011385 5.96564737,3.05138083 L7.98789014,1.02913806 C8.17856642,0.838461778 8.51694967,0.838461778 8.70762595,1.02913806 L10.7298687,3.05138083 C10.9286017,3.25011385 10.9286017,3.57238361 10.7298687,3.77111664 L8.70762595,5.79335941 C8.61094502,5.89272592 8.47935153,5.94375197 8.34775805,5.94375197 Z M7.04793666,3.41124873 L8.35044363,4.7137557 L9.65295059,3.41124873 L8.35044363,2.10874177 L7.04793666,3.41124873 Z" id="形状" fill="#ABC6F6"></path>
                    </g>
                </g>
            </g>
        </g>
    </g>
</svg>