<?xml version="1.0" encoding="UTF-8"?>
<svg width="22px" height="22px" viewBox="0 0 22 22" version="1.1" xmlns="http://www.w3.org/2000/svg" xmlns:xlink="http://www.w3.org/1999/xlink">
    <title>icon/共享</title>
    <g id="部署" stroke="none" stroke-width="1" fill="none" fill-rule="evenodd">
        <g id="应用中心" transform="translate(-1062.000000, -392.000000)">
            <g id="应用中心/item" transform="translate(1050.000000, 376.000000)">
                <g id="icon/共享" transform="translate(12.000000, 16.000000)">
                    <rect id="矩形" fill="#6887E8" fill-rule="nonzero" opacity="0" x="0" y="0" width="22" height="22"></rect>
                    <path d="M1.1,11 C1.1,16.467619 5.53238098,20.9 11,20.9 C16.467619,20.9 20.9,16.467619 20.9,11 C20.9,5.53238098 16.467619,1.1 11,1.1 C5.53238098,1.1 1.1,5.53238098 1.1,11 Z" id="路径" fill="#EBF2FF" fill-rule="nonzero"></path>
                    <g id="share_black_24dp" transform="translate(2.701839, 3.300000)">
                        <polygon id="路径" points="0 0 15.4 0 15.4 15.4 0 15.4"></polygon>
                        <circle id="椭圆形" fill="#6887E8" fill-rule="nonzero" opacity="0.3" cx="11.55" cy="3.20833333" r="1"></circle>
                        <circle id="椭圆形" fill="#6887E8" fill-rule="nonzero" opacity="0.3" cx="3.85" cy="7.7" r="1"></circle>
                        <circle id="椭圆形" fill="#6887E8" fill-rule="nonzero" opacity="0.3" cx="11.55" cy="12.2045" r="1"></circle>
                        <path d="M11.55,10.318 C11.0623333,10.318 10.626,10.5105 10.2923333,10.8120833 L5.71725,8.14916667 C5.74933333,8.00158333 5.775,7.854 5.775,7.7 C5.775,7.546 5.74933333,7.39841667 5.71725,7.25083333 L10.241,4.61358333 C10.5875,4.93441667 11.0430833,5.13333333 11.55,5.13333333 C12.6151667,5.13333333 13.475,4.2735 13.475,3.20833333 C13.475,2.14316667 12.6151667,1.28333333 11.55,1.28333333 C10.4848333,1.28333333 9.625,2.14316667 9.625,3.20833333 C9.625,3.36233333 9.65066667,3.50991667 9.68275,3.6575 L5.159,6.29475 C4.8125,5.97391667 4.35691667,5.775 3.85,5.775 C2.78483333,5.775 1.925,6.63483333 1.925,7.7 C1.925,8.76516667 2.78483333,9.625 3.85,9.625 C4.35691667,9.625 4.8125,9.42608333 5.159,9.10525 L9.72766667,11.7745833 C9.69558333,11.9093333 9.67633333,12.0505 9.67633333,12.1916667 C9.67633333,13.22475 10.5169167,14.0653333 11.55,14.0653333 C12.5830833,14.0653333 13.4236667,13.22475 13.4236667,12.1916667 C13.4236667,11.1585833 12.5830833,10.318 11.55,10.318 Z M11.55,2.56666667 C11.9029167,2.56666667 12.1916667,2.85541667 12.1916667,3.20833333 C12.1916667,3.56125 11.9029167,3.85 11.55,3.85 C11.1970833,3.85 10.9083333,3.56125 10.9083333,3.20833333 C10.9083333,2.85541667 11.1970833,2.56666667 11.55,2.56666667 Z M3.85,8.34166667 C3.49708333,8.34166667 3.20833333,8.05291667 3.20833333,7.7 C3.20833333,7.34708333 3.49708333,7.05833333 3.85,7.05833333 C4.20291667,7.05833333 4.49166667,7.34708333 4.49166667,7.7 C4.49166667,8.05291667 4.20291667,8.34166667 3.85,8.34166667 Z M11.55,12.8461667 C11.1970833,12.8461667 10.9083333,12.5574167 10.9083333,12.2045 C10.9083333,11.8515833 11.1970833,11.5628333 11.55,11.5628333 C11.9029167,11.5628333 12.1916667,11.8515833 12.1916667,12.2045 C12.1916667,12.5574167 11.9029167,12.8461667 11.55,12.8461667 Z" id="形状" fill="#5365EA" fill-rule="nonzero"></path>
                    </g>
                </g>
            </g>
        </g>
    </g>
</svg>