<?xml version="1.0" encoding="UTF-8"?>
<svg width="20px" height="15px" viewBox="0 0 20 15" version="1.1" xmlns="http://www.w3.org/2000/svg" xmlns:xlink="http://www.w3.org/1999/xlink">
    <title>beenhere-24px</title>
    <g id="部署" stroke="none" stroke-width="1" fill="none" fill-rule="evenodd">
        <g id="手动-主机部署-市场应用1" transform="translate(-1017.000000, -466.000000)" fill="#37B1EC" fill-rule="nonzero">
            <g id="编组" transform="translate(350.000000, 81.000000)">
                <g id="编组-5" transform="translate(646.000000, 359.500000)">
                    <g id="是否可编辑" transform="translate(0.000000, 23.000000)">
                        <g id="beenhere-24px" transform="translate(21.000000, 2.500000)">
                            <path d="M15.6056783,2.75913287 L15.8922517,2.92439161 C15.9447273,2.95535664 17.1151888,3.64559441 17.3217343,5.06131469 C17.5996084,5.01443357 17.8808112,4.99026573 18.1626014,4.98903497 C19.2297902,4.98903497 19.7358322,5.37113287 19.790042,5.41418182 L19.790042,5.41418182 L19.9871608,5.56995804 L19.9053986,5.8092028 C19.775021,6.13921678 19.5740979,6.43675524 19.3167273,6.68100699 C18.9294545,7.06397203 18.2271608,7.52097902 17.0851189,7.52097902 L17.0851189,7.52097902 L16.900951,7.52097902 C16.4388252,8.68967832 15.8174266,10.0047273 14.7743497,11.1855105 C14.1504336,11.8915804 13.4166154,12.4922517 12.6012587,12.9644196 C11.6117203,13.5248112 10.5354406,13.9157483 9.41695105,14.1211189 C8.61233566,14.2707972 7.79546853,14.3448671 6.97706294,14.3423585 C5.16545455,14.3423585 3.56727273,13.998042 2.58358042,13.3956084 C1.70573427,12.8594406 1.03099301,11.9833287 0.577454545,10.7939301 C0.180895105,9.71074126 -0.0145174825,8.56422378 0.000839160839,7.41082517 C0.00271328671,7.06696503 0.281762238,6.78906294 0.62565035,6.78858741 L0.62565035,6.78858741 L13.7914965,6.78858741 C13.9524196,6.78257343 14.7476364,6.71457343 15.2433566,6.43832168 C14.8328392,5.7893986 14.7166434,5.03034965 14.9077203,4.22220979 C15.0088671,3.79918881 15.1811748,3.39644755 15.4172028,3.0311049 L15.4172028,3.0311049 L15.6056783,2.75913287 Z M3.61116084,4.52257343 C3.69622378,4.52304895 3.76481119,4.59239161 3.76433812,4.67748252 L3.76433812,4.67748252 L3.76433812,6.24900699 L3.75648623,6.29769152 C3.73611122,6.35890238 3.67836643,6.40304895 3.61029371,6.40304895 L3.61029371,6.40304895 L1.84601399,6.40304895 C1.76092308,6.40304895 1.69197203,6.33406993 1.69197203,6.24897902 L1.69197203,6.24897902 L1.69197203,4.67661538 C1.69197203,4.59155245 1.76092308,4.52257343 1.84601399,4.52257343 L1.84601399,4.52257343 Z M6.04240559,4.52257343 C6.1274965,4.52304895 6.19608392,4.59239161 6.19561085,4.67748252 L6.19561085,4.67748252 L6.19561085,6.24900699 L6.18775896,6.29769152 C6.16738395,6.35890238 6.10963916,6.40304895 6.04156643,6.40304895 L6.04156643,6.40304895 L4.27728671,6.40304895 C4.19205594,6.40304895 4.12285315,6.33420979 4.12234965,6.24897902 L4.12234965,6.24897902 L4.12234965,4.67748252 C4.12234965,4.59191608 4.19169231,4.52257343 4.27725874,4.52257343 L4.27725874,4.52257343 Z M8.51022378,4.52257343 L8.55931101,4.53069785 C8.6204208,4.55141594 8.66424105,4.60940979 8.6638626,4.67748252 L8.6638626,4.67748252 L8.6638626,6.24900699 L8.65601071,6.29769152 C8.6356357,6.35890238 8.57789091,6.40304895 8.50981818,6.40304895 L8.50981818,6.40304895 L6.74553846,6.40304895 C6.66047552,6.40304895 6.5914965,6.33406993 6.59146853,6.24897902 L6.59146853,6.24897902 L6.59146853,4.67661538 C6.59146853,4.59155245 6.66041958,4.52257343 6.74551049,4.52257343 L6.74551049,4.52257343 L8.51022378,4.52257343 L8.51022378,4.52257343 Z M10.9488392,4.52257343 L10.9978072,4.53046959 C11.059369,4.55095944 11.1037483,4.60902937 11.1037483,4.67748252 L11.1037483,4.67748252 L11.1037483,6.24900699 C11.1032727,6.33423776 11.0340699,6.40304895 10.9488392,6.40304895 L10.9488392,6.40304895 L9.18455944,6.40304895 C9.0994965,6.40304895 9.03051748,6.33406993 9.03051748,6.24897902 L9.03051748,6.24897902 L9.03051748,4.67661538 C9.03051748,4.59155245 9.09946853,4.52257343 9.18455944,4.52257343 L9.18455944,4.52257343 L10.9488392,4.52257343 Z M13.4093706,4.52257343 L13.4583387,4.53046959 C13.5199004,4.55095944 13.5642797,4.60902937 13.5642797,4.67748252 L13.5642797,4.67748252 L13.5642797,6.24900699 C13.5638042,6.33423776 13.4946014,6.40304895 13.4093706,6.40304895 L13.4093706,6.40304895 L11.6450909,6.40304895 C11.560028,6.40304895 11.491049,6.33406993 11.491049,6.24897902 L11.491049,6.24897902 L11.491049,4.67661538 C11.491049,4.59155245 11.560028,4.52257343 11.6450909,4.52257343 L11.6450909,4.52257343 L13.4093706,4.52257343 Z M6.04156643,2.26173427 L6.09025097,2.2695859 C6.15146182,2.28996028 6.19560839,2.3477035 6.19560839,2.41577622 L6.19560839,2.41577622 L6.19560839,3.98727273 C6.19560839,4.07247552 6.12676923,4.14170629 6.04156643,4.14218182 L6.04156643,4.14218182 L4.27728671,4.14218182 C4.19191608,4.14170629 4.12285315,4.07264336 4.12237762,3.98727273 L4.12237762,3.98727273 L4.12237762,2.41577622 C4.12285315,2.33054545 4.19208392,2.26173427 4.27728671,2.26173427 L4.27728671,2.26173427 L6.04156643,2.26173427 Z M8.50981818,2.26173427 L8.55850271,2.2695859 C8.61971357,2.28996028 8.66386014,2.3477035 8.66386014,2.41577622 L8.66386014,2.41577622 L8.66386014,3.98727273 C8.66386014,4.07247552 8.59502098,4.14170629 8.50981818,4.14218182 L8.50981818,4.14218182 L6.74553846,4.14218182 C6.66033566,4.14170629 6.5914965,4.07247552 6.5914965,3.98727273 L6.5914965,3.98727273 L6.5914965,2.41577622 L6.59934814,2.36709169 C6.61972252,2.30588084 6.67746573,2.26173427 6.74553846,2.26173427 L6.74553846,2.26173427 L8.50981818,2.26173427 Z M10.9488392,2.26173427 C11.0340699,2.26173427 11.1032727,2.33054545 11.1037483,2.41577622 L11.1037483,2.41577622 L11.1037483,3.98727273 C11.1032727,4.07264336 11.0342098,4.14170629 10.9488392,4.14218182 L10.9488392,4.14218182 L9.18455944,4.14218182 C9.09935664,4.14170629 9.03051748,4.07247552 9.03051748,3.98727273 L9.03051748,3.98727273 L9.03051748,2.41577622 L9.03836912,2.36709169 C9.0587435,2.30588084 9.11648671,2.26173427 9.18455944,2.26173427 L9.18455944,2.26173427 Z M10.9488392,2.81127103e-15 C11.0340699,2.81127103e-15 11.1032727,0.0688111888 11.1037483,0.154041958 L11.1037483,0.154041958 L11.1037483,1.72643357 C11.1032727,1.81163636 11.0340699,1.88047552 10.9488392,1.88047552 L10.9488392,1.88047552 L9.18455944,1.88047552 C9.0994965,1.88047552 9.03051748,1.8114965 9.03051748,1.72640559 L9.03051748,1.72640559 L9.03051748,0.154041958 L9.03836912,0.105346685 C9.0587435,0.0441286713 9.11648671,2.81127103e-15 9.18455944,2.81127103e-15 L9.18455944,2.81127103e-15 Z" id="形状结合"></path>
                        </g>
                    </g>
                </g>
            </g>
        </g>
    </g>
</svg>