<?xml version="1.0" encoding="UTF-8"?>
<svg width="375px" height="205px" viewBox="0 0 375 205" version="1.1" xmlns="http://www.w3.org/2000/svg" xmlns:xlink="http://www.w3.org/1999/xlink">
    <title>编组 6</title>
    <g id="缺省页" stroke="none" stroke-width="1" fill="none" fill-rule="evenodd">
        <g id="应用服务" transform="translate(-664.000000, -294.000000)">
            <g id="编组-6" transform="translate(665.500000, 295.000000)">
                <g id="编组-15" transform="translate(0.000000, 6.247770)">
                    <g id="编组-18" transform="translate(0.000000, 194.252230)" stroke="#323288" stroke-linecap="square" stroke-width="1.5">
                        <line x1="0" y1="1" x2="6" y2="1" id="直线-5"></line>
                        <line x1="10" y1="1" x2="357.5" y2="1" id="直线-5"></line>
                        <line x1="363.4" y1="1" x2="372.074465" y2="1" id="直线-5"></line>
                    </g>
                    <path d="M301,15.2522304 L299,17.2522304 L297,15.2522304 L299,13.2522304 L301,15.2522304 Z M299,9.25223043 L301.12,11.3722304 L303.62,8.87223043 L299,4.25223043 L294.38,8.87223043 L296.88,11.3722304 L299,9.25223043 Z M293,15.2522304 L295.12,13.1322304 L292.62,10.6322304 L288,15.2522304 L292.62,19.8722304 L295.12,17.3722304 L293,15.2522304 Z M305,15.2522304 L302.88,17.3722304 L305.38,19.8722304 L310,15.2522304 L305.38,10.6322304 L302.88,13.1322304 L305,15.2522304 Z M299,21.2522304 L296.88,19.1322304 L294.38,21.6322304 L299,26.2522304 L303.62,21.6322304 L301.12,19.1322304 L299,21.2522304 Z" id="形状" fill-opacity="0.32" fill="#D9E6F2" fill-rule="nonzero"></path>
                    <path d="M29.3213239,96.6563611 C23.8013239,96.6563611 19.3213239,101.136361 19.3213239,106.656361 C19.3213239,107.986361 19.5813239,109.266361 20.0613239,110.426361 L25.3213239,105.156361 L28.6213239,107.936361 L31.9013239,104.656361 L30.3213239,104.656361 L30.3213239,102.656361 L35.3213239,102.656361 L35.3213239,107.656361 L33.3213239,107.656361 L33.3213239,106.076361 L28.7313239,110.656361 L25.4413239,107.866361 L21.0413239,112.266361 C22.8413239,114.916361 25.8813239,116.656361 29.3213239,116.656361 L37.3213239,116.656361 C38.4213239,116.656361 39.3213239,115.756361 39.3213239,114.656361 L39.3213239,106.656361 C39.3213239,101.136361 34.8413239,96.6563611 29.3213239,96.6563611 Z M36.8213239,115.156361 C36.2713239,115.156361 35.8213239,114.706361 35.8213239,114.156361 C35.8213239,113.606361 36.2713239,113.156361 36.8213239,113.156361 C37.3713239,113.156361 37.8213239,113.606361 37.8213239,114.156361 C37.8213239,114.706361 37.3713239,115.156361 36.8213239,115.156361 Z" id="形状" fill-opacity="0.32" fill="#D9E6F2" fill-rule="nonzero" transform="translate(29.321324, 106.656361) rotate(10.000000) translate(-29.321324, -106.656361) "></path>
                    <path d="M352.415441,39.3418018 L350.415441,39.3418018 L350.415441,48.3418018 L337.415441,48.3418018 L337.415441,50.3418018 C337.415441,50.8918018 337.865441,51.3418018 338.415441,51.3418018 L349.415441,51.3418018 L353.415441,55.3418018 L353.415441,40.3418018 C353.415441,39.7918018 352.965441,39.3418018 352.415441,39.3418018 Z M348.415441,45.3418018 L348.415441,36.3418018 C348.415441,35.7918018 347.965441,35.3418018 347.415441,35.3418018 L334.415441,35.3418018 C333.865441,35.3418018 333.415441,35.7918018 333.415441,36.3418018 L333.415441,50.3418018 L337.415441,46.3418018 L347.415441,46.3418018 C347.965441,46.3418018 348.415441,45.8918018 348.415441,45.3418018 Z" id="形状" fill-opacity="0.32" fill="#D9E6F2" fill-rule="nonzero" transform="translate(343.415441, 45.341802) rotate(-10.000000) translate(-343.415441, -45.341802) "></path>
                    <path d="M56.528342,176.801802 L60.528342,176.801802 L60.528342,164.801802 L56.528342,164.801802 L56.528342,176.801802 Z M78.528342,165.801802 C78.528342,164.701802 77.628342,163.801802 76.528342,163.801802 L70.218342,163.801802 L71.168342,159.231802 L71.198342,158.911802 C71.198342,158.501802 71.028342,158.121802 70.758342,157.851802 L69.698342,156.801802 L63.118342,163.391802 C62.748342,163.751802 62.528342,164.251802 62.528342,164.801802 L62.528342,174.801802 C62.528342,175.901802 63.428342,176.801802 64.528342,176.801802 L73.528342,176.801802 C74.358342,176.801802 75.068342,176.301802 75.368342,175.581802 L78.388342,168.531802 C78.478342,168.301802 78.528342,168.061802 78.528342,167.801802 L78.528342,165.801802 Z" id="形状" fill-opacity="0.32" fill="#D9E6F2" fill-rule="nonzero"></path>
                    <path d="M299,158.25223 L355,158.25223 C354.666667,154.585564 353.166667,152.75223 350.5,152.75223 C346.5,152.75223 344.5,154.75223 343.5,154.75223 C342.5,154.75223 339.5,147.75223 334.5,146.75223 C329.5,145.75223 327.5,149.75223 325.5,149.75223 C323.5,149.75223 323.5,149.75223 314.5,146.75223 C307.781208,148.907315 302.614541,152.740648 299,158.25223 Z" id="直线-9" fill-opacity="0.32" fill="#D9E6F2"></path>
                    <path d="M56.6785153,10.2147923 L107.053083,10.2147923 C105.08315,7.90641771 102.898789,6.75223043 100.5,6.75223043 C96.9018166,6.75223043 93.3995458,8.75223043 92.5,8.75223043 C91.6004542,8.75223043 90.9977292,4.75223043 86.5,3.75223043 C82.0022708,2.75223043 80.2990917,5.75223043 78.5,5.75223043 C76.7009083,5.75223043 73.5657925,-2.48039602 64.5,0.752230432 C58.4561384,2.90731473 55.8489768,6.06150201 56.6785153,10.2147923 Z" id="直线-9" fill-opacity="0.32" fill="#D9E6F2"></path>
                </g>
                <g id="编组-22" transform="translate(70.642857, 36.000000)">
                    <path d="M33,80.5 L6,80.5 C2.6862915,80.5 9.09494702e-13,77.8137085 9.09494702e-13,74.5 L9.09494702e-13,6 C9.09494702e-13,2.6862915 2.6862915,3.97903932e-13 6,3.97903932e-13 L61.5,3.97903932e-13 C64.8137085,3.97903932e-13 67.5,2.6862915 67.5,6 C67.5,14 67.5,20 67.5,24" id="路径" stroke="#323288" stroke-width="1.5" fill="#FFFFFF"></path>
                    <path d="M24.1981253,60.88125 C24.2356253,60.6 24.2543753,60.309375 24.2543753,60 C24.2543753,59.7 24.2356253,59.4 24.1887503,59.11875 L26.0918753,57.6375 C26.2606253,57.50625 26.3075003,57.253125 26.2043753,57.065625 L24.4043753,53.953125 C24.2918753,53.746875 24.0575003,53.68125 23.8512503,53.746875 L21.6106253,54.646875 C21.1418753,54.290625 20.6450003,53.990625 20.0918753,53.765625 L19.7543753,51.384375 C19.7168753,51.159375 19.5293753,51 19.3043753,51 L15.7043753,51 C15.4793753,51 15.3012503,51.159375 15.2637503,51.384375 L14.9262503,53.765625 C14.3731253,53.990625 13.8668753,54.3 13.4075003,54.646875 L11.1668753,53.746875 C10.9606253,53.671875 10.7262503,53.746875 10.6137503,53.953125 L8.82312531,57.065625 C8.71062531,57.2625 8.74812531,57.50625 8.93562531,57.6375 L10.8387503,59.11875 C10.7918753,59.4 10.7543753,59.709375 10.7543753,60 C10.7543753,60.290625 10.7731253,60.6 10.8200003,60.88125 L8.91687531,62.3625 C8.74812531,62.49375 8.70125031,62.746875 8.80437531,62.934375 L10.6043753,66.046875 C10.7168753,66.253125 10.9512503,66.31875 11.1575003,66.253125 L13.3981253,65.353125 C13.8668753,65.709375 14.3637503,66.009375 14.9168753,66.234375 L15.2543753,68.615625 C15.3012503,68.840625 15.4793753,69 15.7043753,69 L19.3043753,69 C19.5293753,69 19.7168753,68.840625 19.7450003,68.615625 L20.0825003,66.234375 C20.6356253,66.009375 21.1418753,65.709375 21.6012503,65.353125 L23.8418753,66.253125 C24.0481253,66.328125 24.2825003,66.253125 24.3950003,66.046875 L26.1950003,62.934375 C26.3075003,62.728125 26.2606253,62.49375 26.0825003,62.3625 L24.1981253,60.88125 Z M17.5043753,63.375 C15.6481253,63.375 14.1293753,61.85625 14.1293753,60 C14.1293753,58.14375 15.6481253,56.625 17.5043753,56.625 C19.3606253,56.625 20.8793753,58.14375 20.8793753,60 C20.8793753,61.85625 19.3606253,63.375 17.5043753,63.375 Z" id="形状" fill="#5365EA" fill-rule="nonzero"></path>
                    <rect id="矩形" fill="#D9E6F2" x="8.75" y="10.75" width="50" height="4" rx="2"></rect>
                    <rect id="矩形" fill="#D9E6F2" x="8.75" y="21.75" width="50" height="4" rx="2"></rect>
                    <rect id="矩形" fill="#D9E6F2" x="8.75" y="32.75" width="20" height="4" rx="2"></rect>
                </g>
                <path d="M226.392857,99 L267.892857,99 C273.415705,99 277.892857,103.477153 277.892857,109 L277.892857,178 C277.892857,183.522847 273.415705,188 267.892857,188 L226.392857,188 L226.392857,188 L226.392857,99 Z" id="矩形" stroke="#5365EA" stroke-width="1.5" stroke-dasharray="2,3" transform="translate(252.142857, 143.500000) scale(1, -1) translate(-252.142857, -143.500000) "></path>
                <path d="M68.6428571,138.75 L114.642857,138.75 C120.165705,138.75 124.642857,143.227153 124.642857,148.75 L124.642857,173.75 C124.642857,179.272847 120.165705,183.75 114.642857,183.75 L68.6428571,183.75 L68.6428571,183.75 L68.6428571,138.75 Z" id="矩形" stroke="#5365EA" stroke-width="1.5" stroke-dasharray="2,3" transform="translate(96.642857, 161.250000) scale(-1, 1) translate(-96.642857, -161.250000) "></path>
                <g id="编组-16" transform="translate(112.142857, 72.000000)">
                    <rect id="矩形" fill="#E7EFFF" x="8" y="30" width="126" height="81"></rect>
                    <g id="编组-9">
                        <path d="M142,22 L142,22 L142,25 C142,28.3137085 139.313708,31 136,31 L6,31 C2.6862915,31 0,28.3137085 0,25 L0,6 C0,2.6862915 2.6862915,0 6,0 L76.3571429,0 L76.3571429,0" id="路径" stroke="var(--text-color)" stroke-width="1.5" fill="#FFFFFF"></path>
                        <rect id="矩形" fill="#D9E6F2" x="14" y="13" width="70" height="5" rx="1.5"></rect>
                    </g>
                    <g id="编组-9" transform="translate(0.000000, 49.000000)">
                        <rect id="矩形" stroke="var(--text-color)" stroke-width="1.5" fill="#FFFFFF" x="0" y="0" width="142" height="31" rx="6"></rect>
                        <rect id="矩形" fill="#D9E6F2" x="14" y="13" width="70" height="5" rx="1.5"></rect>
                        <circle id="椭圆形" fill="#5365EA" cx="121" cy="15.5" r="5"></circle>
                        <circle id="椭圆形" fill="#5365EA" cx="103" cy="15.5" r="5"></circle>
                    </g>
                    <g id="编组-9" transform="translate(0.000000, 98.000000)">
                        <rect id="矩形" stroke="var(--text-color)" stroke-width="1.5" fill="#FFFFFF" x="0" y="0" width="142" height="31" rx="6"></rect>
                        <rect id="矩形" fill="#D9E6F2" x="14" y="13" width="70" height="5" rx="1.5"></rect>
                        <circle id="椭圆形" fill="#5365EA" cx="121" cy="15.5" r="5"></circle>
                        <circle id="椭圆形" fill="#5365EA" cx="103" cy="15.5" r="5"></circle>
                    </g>
                </g>
                <g id="编组-20" transform="translate(270.295914, 152.250000) scale(-1, 1) translate(-270.295914, -152.250000) translate(236.295914, 120.750000)">
                    <circle id="椭圆形" stroke="#323288" stroke-width="1.5" fill="#FFFFFF" cx="41.0033857" cy="21.9513725" r="20.078133"></circle>
                    <path d="M55.5173516,0.282152431 C62.4915545,4.96269838 67.0815188,12.9210136 67.0815188,21.9513725 C67.0815188,25.2273882 66.4774432,28.3623146 65.3746033,31.2508404 L58.8031322,31.2500394 C60.258426,28.4699886 61.0815188,25.3068024 61.0815188,21.9513725 C61.0815188,14.2956594 56.7967859,7.64069933 50.4945719,4.25374406 C51.2447178,2.12295569 53.1653416,0.543879496 55.4846556,0.286811193 Z" id="形状结合" fill-opacity="0.12" fill="#5365EA"></path>
                    <path d="M41.0019304,2.74793421 C41.8515476,2.74793421 42.688278,2.80310934 43.5087339,2.91007194 C34.087372,4.13784545 26.8115954,12.1949346 26.8115954,21.9513725 C26.8115954,31.7078103 34.087372,39.7648995 43.5090674,40.9927821 C42.688278,41.0996356 41.8515476,41.1548107 41.0019304,41.1548107 C30.3961643,41.1548107 21.7984921,32.5571386 21.7984921,21.9513725 C21.7984921,11.3456064 30.3961643,2.74793421 41.0019304,2.74793421 Z" id="路径" fill="#E0E7F5"></path>
                    <path d="M11.8237895,38.4757165 C13.9183494,38.4757165 15.6163257,40.1736928 15.6163257,42.2682528 L15.6163257,60.1154821 C15.6163257,62.2100421 13.9183494,63.9080184 11.8237895,63.9080184 C9.72922952,63.9080184 8.03125321,62.2100421 8.03125321,60.1154821 L8.03125321,42.2682528 C8.03125321,40.1736928 9.72922952,38.4757165 11.8237895,38.4757165 Z" id="矩形" stroke="#323288" stroke-width="1.5" fill="#FFFFFF" transform="translate(11.823789, 51.191867) rotate(45.000000) translate(-11.823789, -51.191867) "></path>
                    <line x1="23.9214584" y1="34.8584579" x2="23.6192512" y2="43.8902519" id="直线-7" stroke="#323288" stroke-width="1.5" stroke-linecap="square" transform="translate(23.770355, 39.374355) rotate(-135.000000) translate(-23.770355, -39.374355) "></line>
                </g>
                <g id="编组-11" transform="translate(30.500000, 143.000000)">
                    <path d="M23.7272727,0 L2.48689958e-13,10.5454545 L2.48689958e-13,26.3636364 C2.48689958e-13,40.9954545 10.1236364,54.6781818 23.7272727,58 C37.3309091,54.6781818 47.4545455,40.9954545 47.4545455,26.3636364 L47.4545455,10.5454545 L23.7272727,0 Z" id="路径" stroke="var(--text-color)" stroke-width="1.5" fill="#E7EFFF" fill-rule="nonzero"></path>
                    <path d="M23.7272727,8 L6.54545455,15.6363636 L6.54545455,27.0909091 C6.54545455,37.6863636 13.8763636,47.5945455 23.7272727,50 C33.5781818,47.5945455 40.9090909,37.6863636 40.9090909,27.0909091 L40.9090909,15.6363636 L23.7272727,8 Z" id="路径" stroke="var(--text-color)" stroke-width="1.5" fill="#FFFFFF" fill-rule="nonzero"></path>
                    <polyline id="直线-6" stroke="#5365EA" stroke-width="3" stroke-linecap="round" points="14.9796859 30.8003467 20.228238 36.0488988 32.4748596 23.1024702"></polyline>
                </g>
                <g id="编组-3" transform="translate(304.295914, 81.000000)">
                    <path d="M22.7478494,44.2464752 C34.9206561,44.2464752 44.7886657,34.3784656 44.7886657,22.2056588 C44.7886657,10.0328521 34.9206561,0.164842506 22.7478494,0.164842506 C16.1880353,0.164842506 10.2975421,3.03054541 6.25997983,7.57834102 C2.80518561,11.4697232 0.707033045,16.5926661 0.707033045,22.2056588 C0.707033045,34.3784656 10.5750426,44.2464752 22.7478494,44.2464752 Z" id="椭圆形" stroke="var(--text-color)" stroke-width="1.5" fill="#FFFFFF"></path>
                    <g id="编组-17" transform="translate(7.135604, 14.858720)" stroke="#5365EA" stroke-linecap="round" stroke-linejoin="round" stroke-width="3">
                        <path d="M12.7218794,12.1961667 L3.86252175,12.1961667 C3.25091073,12.1961667 2.75510204,11.700358 2.75510204,11.088747 L2.75510204,2.22938925" id="路径" transform="translate(7.738491, 7.212778) rotate(-315.000000) translate(-7.738491, -7.212778) "></path>
                        <path d="M29.0958709,12.1961667 L20.2365132,12.1961667 C19.6249022,12.1961667 19.1290935,11.700358 19.1290935,11.088747 L19.1290935,2.22938925" id="路径" transform="translate(24.112482, 7.212778) scale(-1, 1) rotate(-315.000000) translate(-24.112482, -7.212778) "></path>
                        <line x1="11.3293449" y1="13.9114584" x2="18.8744697" y2="1.83673469" id="路径"></line>
                    </g>
                </g>
                <g id="编组-29" transform="translate(198.392857, 33.000000)">
                    <path d="M59.3506621,0 C70.1004903,0 78.8149479,7.71445755 78.8149479,18.4642857 C78.8149479,19.6698739 78.7053416,20.8498622 78.4955504,21.9948293 L77.9935193,21.9870386 C86.7709019,21.9870386 94.8863764,29.1025131 94.8863764,37.8798957 C94.8863764,46.6572783 87.7709019,53.7727529 78.9935193,53.7727529 C70.3039105,53.7727529 22.6493263,53.7727529 15.1785714,53.7727529 C6.7956779,53.7727529 0,46.977075 0,38.5941814 C0,30.2112879 6.7956779,23.41561 15.1785714,23.41561 L15.4667859,23.4182916 C16.7048745,16.2432746 22.9586158,10.7857143 30.4870386,10.7857143 C34.2325497,10.7857143 37.6625488,12.1365817 40.3164059,14.3776865 C42.1933261,5.59023869 50.0023778,0 59.3506621,0 Z" id="路径" stroke="var(--text-color)" stroke-width="1.5" fill="#FFFFFF"></path>
                    <path d="M59.2425276,1 C69.6379609,1 78.0651247,8.46013122 78.0651247,18.8555645 C78.0651247,20.0214075 77.9591319,21.1624945 77.7562569,22.2697149 L77.8687735,22.2735408 C86.1237602,22.5868776 93.6067185,29.3427942 93.6067185,37.6310905 C93.6067185,46.1191048 86.7258234,53 78.237809,53 L71.9520977,53 C80.4401121,53 87.3210072,46.1191048 87.3210072,37.6310905 C87.3210072,29.443871 80.0194472,22.751884 71.8847173,22.2878699 L71.4705456,22.2697149 C71.6396081,21.3470313 71.7413913,20.4008291 71.7706228,19.4363808 L71.7794134,18.8555645 C71.7794134,9.52084837 64.9842724,2.55297736 56.0706281,1.22820685 C57.1015632,1.07731764 58.161401,1 59.2425276,1 Z" id="形状" fill="#E0E7F5"></path>
                    <path d="M23.5695659,25.5646049 C21.292172,24.2000281 18.6273081,23.41561 15.7792336,23.41561" id="路径" stroke="var(--text-color)" fill="#FFFFFF"></path>
                </g>
                <g id="编组-21" transform="translate(156.949064, 0.497770)">
                    <line x1="0" y1="6" x2="12" y2="6" id="直线-8" stroke="#5365EA" stroke-width="1.5" stroke-linecap="square"></line>
                    <line x1="0" y1="6" x2="12" y2="6" id="直线-8" stroke="#5365EA" stroke-width="1.5" stroke-linecap="square" transform="translate(6.000000, 6.000000) rotate(90.000000) translate(-6.000000, -6.000000) "></line>
                    <rect id="矩形" fill="#5365EA" transform="translate(6.000000, 6.000000) rotate(45.000000) translate(-6.000000, -6.000000) " x="2" y="2" width="8" height="8"></rect>
                </g>
                <g id="编组-21" transform="translate(198.392857, 22.497691)" stroke="#5365EA">
                    <line x1="0" y1="3" x2="6" y2="3" id="直线-8" stroke-width="1.5" stroke-linecap="square"></line>
                    <polygon id="矩形" fill="#5365EA" transform="translate(3.000000, 3.000000) rotate(45.000000) translate(-3.000000, -3.000000) " points="1.25 1.25 4.75 1.25 4.75 4.75 1.25 4.75"></polygon>
                    <line x1="1.00280713e-15" y1="3" x2="6" y2="3" id="直线-8" stroke-width="1.5" stroke-linecap="square" transform="translate(3.000000, 3.000000) rotate(90.000000) translate(-3.000000, -3.000000) "></line>
                </g>
                <path d="M240.892935,22.4976914 C240.492935,22.4976914 240.093248,22.3451914 239.787935,22.0398789 L236.350435,18.6023789 C235.740123,17.9923789 235.740123,17.0030039 236.350435,16.3930039 L239.787935,12.9555039 C240.398248,12.3451914 241.38731,12.3451914 241.997623,12.9555039 L245.435123,16.3930039 C246.045435,17.0030039 246.045435,17.9923789 245.435123,18.6023789 L241.997623,22.0398789 C241.692623,22.3451914 241.292935,22.4976914 240.892935,22.4976914 Z M239.665123,17.4976914 L240.892935,18.7255039 L242.120748,17.4976914 L240.892935,16.2698789 L239.665123,17.4976914 Z" id="形状" fill="#5365EA" fill-rule="nonzero"></path>
            </g>
        </g>
    </g>
</svg>