<?xml version="1.0" encoding="UTF-8"?>
<svg width="46px" height="46px" viewBox="0 0 46 46" version="1.1" xmlns="http://www.w3.org/2000/svg" xmlns:xlink="http://www.w3.org/1999/xlink">
    <title>切片</title>
    <g id="开发" stroke="none" stroke-width="1" fill="none" fill-rule="evenodd">
        <g id="应用服务-通用git" transform="translate(-1092.000000, -185.000000)" fill-rule="nonzero">
            <g id="导入应用服务选项" transform="translate(1080.000000, 173.000000)">
                <g id="icon/共享" transform="translate(12.000000, 12.000000)">
                    <rect id="矩形" fill="#6887E8" opacity="0" x="0" y="0" width="46" height="46"></rect>
                    <path d="M2.3,23 C2.3,34.4322943 11.5677057,43.7 23,43.7 C34.4322943,43.7 43.7,34.4322943 43.7,23 C43.7,11.5677057 34.4322943,2.3 23,2.3 C11.5677057,2.3 2.3,11.5677057 2.3,23 Z" id="路径" fill-opacity="0.12" fill="#F15033"></path>
                    <g id="git" transform="translate(9.200000, 9.200000)">
                        <rect id="矩形" fill="#000000" opacity="0" x="0" y="0" width="27.6" height="27.6"></rect>
                        <path d="M27.384375,13.36875 L14.23125,0.1725 C14.015625,-0.043125 13.6275,-0.043125 13.36875,0.1725 L9.74625,3.795 L13.11,7.15875 C13.36875,7.029375 13.670625,6.98625 13.9725,6.98625 C15.223125,6.98625 16.171875,7.978125 16.171875,9.185625 C16.171875,9.4875 16.12875,9.789375 15.999375,10.048125 L18.673125,12.721875 C18.931875,12.5925 19.23375,12.549375 19.535625,12.549375 C20.78625,12.549375 21.735,13.54125 21.735,14.74875 C21.735,15.999375 20.743125,16.948125 19.535625,16.948125 C18.285,16.948125 17.33625,15.95625 17.33625,14.74875 C17.33625,14.446875 17.379375,14.145 17.50875,13.88625 L14.835,11.2125 L14.791875,11.2125 L14.791875,16.30125 C15.61125,16.64625 16.171875,17.4225 16.171875,18.37125 C16.171875,19.621875 15.18,20.570625 13.9725,20.570625 C12.721875,20.570625 11.773125,19.57875 11.773125,18.37125 C11.773125,17.4225 12.33375,16.64625 13.153125,16.30125 L13.153125,11.29875 C12.33375,10.95375 11.773125,10.1775 11.773125,9.22875 C11.773125,8.926875 11.81625,8.625 11.945625,8.36625 L8.581875,4.959375 L0.1725,13.36875 C-0.043125,13.584375 -0.043125,13.9725 0.1725,14.23125 L13.36875,27.4275 C13.584375,27.643125 13.9725,27.643125 14.23125,27.4275 L27.4275,14.23125 C27.643125,14.015625 27.643125,13.584375 27.384375,13.36875 Z" id="路径" fill="#F15033"></path>
                    </g>
                </g>
            </g>
        </g>
    </g>
</svg>