<?xml version="1.0" encoding="UTF-8"?>
<svg width="46px" height="46px" viewBox="0 0 46 46" version="1.1" xmlns="http://www.w3.org/2000/svg" xmlns:xlink="http://www.w3.org/1999/xlink">
    <title>切片</title>
    <g id="开发" stroke="none" stroke-width="1" fill="none" fill-rule="evenodd">
        <g id="应用服务-github导入应用服务" transform="translate(-1092.000000, -185.000000)" fill-rule="nonzero">
            <g id="导入应用服务选项" transform="translate(1080.000000, 173.000000)">
                <g id="icon/共享" transform="translate(12.000000, 12.000000)">
                    <rect id="矩形" fill="#6887E8" opacity="0" x="0" y="0" width="46" height="46"></rect>
                    <path d="M2.3,23 C2.3,34.4322943 11.5677057,43.7 23,43.7 C34.4322943,43.7 43.7,34.4322943 43.7,23 C43.7,11.5677057 34.4322943,2.3 23,2.3 C11.5677057,2.3 2.3,11.5677057 2.3,23 Z" id="路径" fill-opacity="0.12" fill="#C71D23"></path>
                    <g id="Group" transform="translate(9.200000, 9.200000)" fill="#C71D23">
                        <path d="M13.8,0 C21.4215295,0 27.6,6.17847045 27.6,13.8 C27.6,21.4215295 21.4215295,27.6 13.8,27.6 C6.17847045,27.6 0,21.4215295 0,13.8 C0,6.17847045 6.17847045,0 13.8,0 Z M20.785189,6.13375587 L11.2444163,6.13375587 C8.4216431,6.13375587 6.13333333,8.42206565 6.13333333,11.2448388 L6.13333333,20.785189 C6.13333333,21.1615587 6.4384413,21.4666667 6.81481106,21.4666667 L16.8667927,21.4666667 C19.407233,21.4666667 21.4666667,19.407233 21.4666667,16.8667927 L21.4666667,12.9483964 C21.4666667,12.5720267 21.1615587,12.2669187 20.785189,12.2669187 L12.9481951,12.2669187 C12.571895,12.2670972 12.266816,12.5720964 12.2665389,12.9483964 L12.2660928,14.6520224 C12.2658358,14.9941767 12.5179018,15.277503 12.8465062,15.3262632 L12.9473921,15.3334944 L12.9473921,15.3334944 L17.7185392,15.3334547 C18.0606935,15.3334467 18.3439559,15.5855992 18.3926328,15.9142173 L18.4000169,16.0149267 L18.4000169,16.0149267 L18.4000169,16.3556483 C18.4000169,17.4847576 17.484693,18.4000815 16.3555837,18.4000815 L9.88103816,18.4000815 C9.50472243,18.4000627 9.19965535,18.0950041 9.19962618,17.7186883 L9.19944774,11.2447704 C9.19936421,10.1669843 10.0333413,9.28396726 11.0911899,9.20589273 L11.2438245,9.20033728 L11.2438245,9.20033728 L20.7832869,9.20033728 C21.1594916,9.19991446 21.4645312,8.89506406 21.4651873,8.51885967 L21.466244,6.81523348 C21.4668404,6.47307943 21.2148957,6.18966285 20.8863105,6.14078488 L20.785189,6.13375587 L20.785189,6.13375587 Z" id="形状结合"></path>
                    </g>
                </g>
            </g>
        </g>
    </g>
</svg>