<?xml version="1.0" encoding="UTF-8"?>
<svg width="46px" height="46px" viewBox="0 0 46 46" version="1.1" xmlns="http://www.w3.org/2000/svg" xmlns:xlink="http://www.w3.org/1999/xlink">
    <title>切片</title>
    <g id="开发" stroke="none" stroke-width="1" fill="none" fill-rule="evenodd">
        <g id="应用服务-导入应用服务" transform="translate(-917.000000, -107.000000)" fill-rule="nonzero">
            <g id="导入应用服务选项" transform="translate(905.000000, 88.000000)">
                <g id="icon/市场" transform="translate(12.000000, 19.000000)">
                    <rect id="矩形" fill="#000000" opacity="0" x="0" y="0" width="46" height="46"></rect>
                    <path d="M2.3,23 C2.3,34.4322943 11.5677057,43.7 23,43.7 C34.4322943,43.7 43.7,34.4322943 43.7,23 C43.7,11.5677057 34.4322943,2.3 23,2.3 C11.5677057,2.3 2.3,11.5677057 2.3,23 Z" id="路径" fill-opacity="0.16" fill="#46B980"></path>
                    <path d="M9.2,23 C9.2,30.6215295 15.3784705,36.8 23,36.8 C30.6215295,36.8 36.8,30.6215295 36.8,23 C36.8,15.3784705 30.6215295,9.2 23,9.2 C15.3784705,9.2 9.2,15.3784705 9.2,23 Z" id="路径" fill-opacity="0.16" fill="#46B980"></path>
                    <g id="GitHub" transform="translate(6.900000, 6.900000)">
                        <rect id="矩形" fill="#000000" opacity="0" x="0" y="0" width="32.2" height="32.2"></rect>
                        <path d="M30.1875,16.1 C30.1875,19.1740938 29.2848938,21.924175 27.4937688,24.3784188 C25.7026438,26.8316563 23.3902813,28.5241688 20.555675,29.4680313 C20.2316625,29.5253875 19.9780875,29.4821188 19.8372125,29.3412438 C19.6841303,29.2002313 19.6012486,28.9987368 19.6108062,28.790825 L19.6108062,24.926825 C19.6108062,23.743475 19.2867937,22.8690437 18.6528562,22.3196312 C19.2849172,22.2572962 19.9115057,22.1483243 20.5275,21.9936062 C21.1304681,21.8321912 21.7091548,21.5909025 22.2481875,21.27615 C22.8408687,20.9370437 23.3339312,20.5415875 23.7293875,20.0626125 C24.1238375,19.5836375 24.44785,18.9336 24.701425,18.1306125 C24.9560063,17.3266187 25.0827938,16.4109312 25.0827938,15.3664437 C25.0827938,13.88625 24.6038188,12.6314562 23.6297688,11.587975 C24.081575,10.47305 24.0393125,9.23234375 23.4888938,7.8507625 C23.1507938,7.73705625 22.6577313,7.8085 22.0087,8.0479875 C21.3596688,8.287475 20.7961688,8.55614375 20.3161875,8.85198125 L19.6248938,9.28869375 C18.4828,8.96468125 17.3125312,8.80971875 16.1,8.80971875 C14.8874688,8.80971875 13.7172,8.96468125 12.5751063,9.28869375 C12.3219761,9.1158776 12.06323,8.95143452 11.7992875,8.79563125 C11.4742688,8.59840625 10.9671188,8.35891875 10.2617375,8.09025 C9.57145,7.8085 9.03511875,7.73705625 8.681925,7.836675 C8.1466,9.21825625 8.1043375,10.4599687 8.5551375,11.5738875 C7.59618125,12.6314562 7.10311875,13.88625 7.10311875,15.3664437 C7.10311875,16.4109312 7.22990625,17.3266187 7.4844875,18.116525 C7.73705625,18.9064312 8.062075,19.5554625 8.44344375,20.048525 C8.83789375,20.5415875 9.33095625,20.9511312 9.9236375,21.27615 C10.5163187,21.6001625 11.0939062,21.83965 11.644325,21.9936062 C12.2606431,22.1484019 12.8875718,22.2573745 13.519975,22.3196312 C13.0259063,22.7553375 12.7300688,23.3902812 12.6173688,24.2083625 C12.3538332,24.3359905 12.0737238,24.4260861 11.7852,24.476025 C11.4407726,24.5366999 11.0914214,24.5649983 10.7417188,24.56055 C10.332175,24.56055 9.937725,24.4337625 9.54226875,24.1661 C9.14781875,23.8984375 8.80971875,23.5170687 8.52796875,23.0240062 C8.30420504,22.6441764 8.0011394,22.3170851 7.63945,22.06505 C7.28625625,21.811475 6.97633125,21.6695937 6.73684375,21.6273312 L6.37056875,21.5709812 C6.1159875,21.5709812 5.93285,21.6001625 5.8342375,21.6555062 C5.735625,21.7118562 5.70745,21.7822937 5.7497125,21.8668187 C5.791975,21.9513437 5.848325,22.036875 5.9187625,22.1214 C5.9892,22.205925 6.073725,22.2763625 6.15825,22.3468 L6.2850375,22.431325 C6.55370625,22.5581125 6.82136875,22.7845187 7.08903125,23.1226187 C7.3577,23.4607187 7.5408375,23.77165 7.667625,24.0534 L7.8507625,24.476025 C8.005725,24.9419187 8.2733875,25.3222812 8.65475625,25.6040312 C9.03511875,25.8867875 9.44365625,26.069925 9.881375,26.15445 C10.3180875,26.238975 10.7417188,26.2812375 11.1502563,26.2812375 C11.5587938,26.2812375 11.8979,26.26715 12.1655625,26.2108 L12.5891938,26.1403625 C12.5891938,26.60525 12.5891938,27.1556687 12.602275,27.776525 C12.602275,28.3973812 12.6173688,28.7354812 12.6173688,28.7636562 C12.6220881,28.9732862 12.5340891,29.1743218 12.376875,29.3130687 C12.2219125,29.4539437 11.9683375,29.4962062 11.644325,29.4398562 C8.80971875,28.4949875 6.49735625,26.8034812 4.70623125,24.3492375 C2.90101875,21.924175 2.0125,19.1600063 2.0125,16.1 C2.0125,13.54815 2.64744375,11.1925188 3.9022375,9.03511875 C5.15703125,6.87771875 6.86363125,5.17111875 9.03511875,3.9022375 C11.1925188,2.64744375 13.5471438,2.0125 16.1,2.0125 C18.6528562,2.0125 21.0074813,2.64744375 23.1648813,3.9022375 C25.3222813,5.15703125 27.0288813,6.86363125 28.2977625,9.03511875 C29.5525563,11.1784313 30.1875,13.54815 30.1875,16.1" id="路径" fill="#46B980"></path>
                    </g>
                </g>
            </g>
        </g>
    </g>
</svg>