<?xml version="1.0" encoding="UTF-8"?>
<svg width="47px" height="46px" viewBox="0 0 47 46" version="1.1" xmlns="http://www.w3.org/2000/svg" xmlns:xlink="http://www.w3.org/1999/xlink">
    <title>切片</title>
    <g id="开发" stroke="none" stroke-width="1" fill="none" fill-rule="evenodd">
        <g id="应用服务-导入应用服务" transform="translate(-1184.000000, -107.000000)" fill-rule="nonzero">
            <g id="导入应用服务选项" transform="translate(1172.500000, 88.000000)">
                <g id="icon/共享" transform="translate(12.000000, 19.000000)">
                    <rect id="矩形" fill="#6887E8" opacity="0" x="0" y="0" width="46" height="46"></rect>
                    <path d="M2.3,23 C2.3,34.4322943 11.5677057,43.7 23,43.7 C34.4322943,43.7 43.7,34.4322943 43.7,23 C43.7,11.5677057 34.4322943,2.3 23,2.3 C11.5677057,2.3 2.3,11.5677057 2.3,23 Z" id="路径" fill-opacity="0.16" fill="#F76776"></path>
                    <g id="gitlab" transform="translate(6.900000, 6.900000)">
                        <rect id="矩形" fill="#000000" opacity="0" x="0" y="0" width="32.2" height="32.2"></rect>
                        <path d="M29.3170052,17.853612 L27.832392,13.284432 L24.889956,4.2282464 C24.738616,3.7623124 24.0794176,3.7623124 23.9280132,4.2282464 L20.985384,13.2843676 L11.214294,13.2843676 L8.2717292,4.228182 C8.1203892,3.762248 7.4611908,3.762248 7.309722,4.228182 L4.367286,13.2843676 L2.8827372,17.8536764 C2.74731561,18.270419 2.89564133,18.7269658 3.2501392,18.9845404 L16.0995492,28.3203508 L28.949088,18.9846048 C29.3035456,18.7270048 29.4519232,18.2704088 29.31649,17.8536764" id="路径" fill="#FC6D26"></path>
                        <polygon id="路径" fill="#E24329" points="16.1000644 28.320544 20.9855772 13.2843032 11.2144872 13.2843032"></polygon>
                        <polygon id="路径" fill="#FC6D26" points="16.1001288 28.320544 11.214616 13.284754 4.3678012 13.284754"></polygon>
                        <path d="M4.3674792,13.2845608 L2.8828016,17.8538696 C2.74737229,18.2706262 2.89572915,18.7271888 3.250268,18.9847336 L16.0997424,28.320544 L4.3674792,13.2845608 Z" id="路径" fill="#FCA326"></path>
                        <path d="M4.3675436,13.2843676 L11.2143584,13.2843676 L8.2717936,4.228182 C8.1204536,3.7621836 7.4611908,3.7621836 7.3098508,4.228182 L4.3675436,13.2843676 Z" id="路径" fill="#E24329"></path>
                        <polygon id="路径" fill="#FC6D26" points="16.1000644 28.320544 20.9855772 13.2848184 27.832392 13.2848184"></polygon>
                        <path d="M27.832714,13.2845608 L29.3173916,17.8538696 C29.4528209,18.2706262 29.304464,18.7271888 28.9499252,18.9847336 L16.1004508,28.320544 L27.832714,13.2845608 Z" id="路径" fill="#FCA326"></path>
                        <path d="M27.8321344,13.2843676 L20.985384,13.2843676 L23.9279488,4.228182 C24.0793532,3.7621836 24.7385516,3.7621836 24.8898916,4.228182 L27.8321344,13.2843676 Z" id="路径" fill="#E24329"></path>
                    </g>
                </g>
            </g>
        </g>
    </g>
</svg>