<?xml version="1.0" encoding="UTF-8"?>
<svg width="47px" height="46px" viewBox="0 0 47 46" version="1.1" xmlns="http://www.w3.org/2000/svg" xmlns:xlink="http://www.w3.org/1999/xlink">
    <title>切片</title>
    <g id="开发" stroke="none" stroke-width="1" fill="none" fill-rule="evenodd">
        <g id="应用服务-导入应用服务" transform="translate(-649.000000, -107.000000)">
            <g id="导入应用服务选项" transform="translate(637.500000, 88.000000)">
                <g id="icon/市场" transform="translate(12.000000, 19.000000)">
                    <rect id="矩形" fill="#000000" fill-rule="nonzero" opacity="0" x="0" y="0" width="46" height="46"></rect>
                    <path d="M2.3,23 C2.3,34.4322943 11.5677057,43.7 23,43.7 C34.4322943,43.7 43.7,34.4322943 43.7,23 C43.7,11.5677057 34.4322943,2.3 23,2.3 C11.5677057,2.3 2.3,11.5677057 2.3,23 Z" id="路径" fill="#E3F6FF" fill-rule="nonzero"></path>
                    <g id="shopping_bag_black_24dp" transform="translate(6.900000, 5.967467)">
                        <rect id="矩形" x="0" y="0" width="32.2" height="32.2"></rect>
                        <path d="M24.15,26.8333333 L8.05,26.8333333 L8.05,10.7333333 L10.7333333,10.7333333 L10.7333333,13.4166667 C10.7333333,14.1545833 11.3370833,14.7583333 12.075,14.7583333 C12.8129167,14.7583333 13.4166667,14.1545833 13.4166667,13.4166667 L13.4166667,10.7333333 L18.7833333,10.7333333 L18.7833333,13.4166667 C18.7833333,14.1545833 19.3870833,14.7583333 20.125,14.7583333 C20.8629167,14.7583333 21.4666667,14.1545833 21.4666667,13.4166667 L21.4666667,10.7333333 L24.15,10.7333333 L24.15,26.8333333 Z" id="路径" fill="#37B1EC" fill-rule="nonzero" opacity="0.3"></path>
                        <path d="M24.15,8.05 L21.4666667,8.05 C21.4666667,5.08491667 19.0650833,2.68333333 16.1,2.68333333 C13.1349167,2.68333333 10.7333333,5.08491667 10.7333333,8.05 L8.05,8.05 C6.57416667,8.05 5.36666667,9.2575 5.36666667,10.7333333 L5.36666667,26.8333333 C5.36666667,28.3091667 6.57416667,29.5166667 8.05,29.5166667 L24.15,29.5166667 C25.6258333,29.5166667 26.8333333,28.3091667 26.8333333,26.8333333 L26.8333333,10.7333333 C26.8333333,9.2575 25.6258333,8.05 24.15,8.05 Z M16.1,5.36666667 C17.5758333,5.36666667 18.7833333,6.57416667 18.7833333,8.05 L13.4166667,8.05 C13.4166667,6.57416667 14.6241667,5.36666667 16.1,5.36666667 Z M24.15,26.8333333 L8.05,26.8333333 L8.05,10.7333333 L10.7333333,10.7333333 L10.7333333,13.4166667 C10.7333333,14.1545833 11.3370833,14.7583333 12.075,14.7583333 C12.8129167,14.7583333 13.4166667,14.1545833 13.4166667,13.4166667 L13.4166667,10.7333333 L18.7833333,10.7333333 L18.7833333,13.4166667 C18.7833333,14.1545833 19.3870833,14.7583333 20.125,14.7583333 C20.8629167,14.7583333 21.4666667,14.1545833 21.4666667,13.4166667 L21.4666667,10.7333333 L24.15,10.7333333 L24.15,26.8333333 Z" id="形状" fill="#37B1EC" fill-rule="nonzero"></path>
                    </g>
                </g>
            </g>
        </g>
    </g>
</svg>