<?xml version="1.0" encoding="UTF-8"?>
<svg width="46px" height="46px" viewBox="0 0 46 46" version="1.1" xmlns="http://www.w3.org/2000/svg" xmlns:xlink="http://www.w3.org/1999/xlink">
    <title>切片</title>
    <g id="开发" stroke="none" stroke-width="1" fill="none" fill-rule="evenodd">
        <g id="应用服务-导入应用服务" transform="translate(-382.000000, -107.000000)">
            <g id="导入应用服务选项" transform="translate(370.000000, 88.000000)">
                <g id="icon/共享" transform="translate(12.000000, 19.000000)">
                    <rect id="矩形" fill="#6887E8" fill-rule="nonzero" opacity="0" x="0" y="0" width="46" height="46"></rect>
                    <path d="M2.3,23 C2.3,34.4322943 11.5677057,43.7 23,43.7 C34.4322943,43.7 43.7,34.4322943 43.7,23 C43.7,11.5677057 34.4322943,2.3 23,2.3 C11.5677057,2.3 2.3,11.5677057 2.3,23 Z" id="路径" fill="#EBF2FF" fill-rule="nonzero"></path>
                    <g id="share_black_24dp" transform="translate(6.680662, 8.050000)">
                        <polygon id="路径" points="0 0 29.9 0 29.9 29.9 0 29.9"></polygon>
                        <circle id="椭圆形" fill="#6887E8" fill-rule="nonzero" opacity="0.3" cx="22.425" cy="6.22916667" r="1.24583333"></circle>
                        <circle id="椭圆形" fill="#6887E8" fill-rule="nonzero" opacity="0.3" cx="7.475" cy="14.95" r="1.24583333"></circle>
                        <circle id="椭圆形" fill="#6887E8" fill-rule="nonzero" opacity="0.3" cx="22.425" cy="23.69575" r="1.24583333"></circle>
                        <path d="M22.425,20.033 C21.4781667,20.033 20.631,20.40675 19.9831667,20.9922917 L11.100375,15.8220833 C11.1626667,15.5355417 11.2125,15.249 11.2125,14.95 C11.2125,14.651 11.1626667,14.3644583 11.100375,14.0779167 L19.8835,8.95754167 C20.55625,9.58045833 21.4407917,9.96666667 22.425,9.96666667 C24.4930833,9.96666667 26.1625,8.29725 26.1625,6.22916667 C26.1625,4.16108333 24.4930833,2.49166667 22.425,2.49166667 C20.3569167,2.49166667 18.6875,4.16108333 18.6875,6.22916667 C18.6875,6.52816667 18.7373333,6.81470833 18.799625,7.10125 L10.0165,12.221625 C9.34375,11.5987083 8.45920833,11.2125 7.475,11.2125 C5.40691667,11.2125 3.7375,12.8819167 3.7375,14.95 C3.7375,17.0180833 5.40691667,18.6875 7.475,18.6875 C8.45920833,18.6875 9.34375,18.3012917 10.0165,17.678375 L18.8868333,22.8610417 C18.8245417,23.1226667 18.7871667,23.39675 18.7871667,23.6708333 C18.7871667,25.676625 20.4192083,27.3086667 22.425,27.3086667 C24.4307917,27.3086667 26.0628333,25.676625 26.0628333,23.6708333 C26.0628333,21.6650417 24.4307917,20.033 22.425,20.033 Z M22.425,4.98333333 C23.1102083,4.98333333 23.6708333,5.54395833 23.6708333,6.22916667 C23.6708333,6.914375 23.1102083,7.475 22.425,7.475 C21.7397917,7.475 21.1791667,6.914375 21.1791667,6.22916667 C21.1791667,5.54395833 21.7397917,4.98333333 22.425,4.98333333 Z M7.475,16.1958333 C6.78979167,16.1958333 6.22916667,15.6352083 6.22916667,14.95 C6.22916667,14.2647917 6.78979167,13.7041667 7.475,13.7041667 C8.16020833,13.7041667 8.72083333,14.2647917 8.72083333,14.95 C8.72083333,15.6352083 8.16020833,16.1958333 7.475,16.1958333 Z M22.425,24.9415833 C21.7397917,24.9415833 21.1791667,24.3809583 21.1791667,23.69575 C21.1791667,23.0105417 21.7397917,22.4499167 22.425,22.4499167 C23.1102083,22.4499167 23.6708333,23.0105417 23.6708333,23.69575 C23.6708333,24.3809583 23.1102083,24.9415833 22.425,24.9415833 Z" id="形状" fill="#5365EA" fill-rule="nonzero"></path>
                    </g>
                </g>
            </g>
        </g>
    </g>
</svg>