<?xml version="1.0" encoding="UTF-8"?>
<svg width="375px" height="199px" viewBox="0 0 375 199" version="1.1" xmlns="http://www.w3.org/2000/svg" xmlns:xlink="http://www.w3.org/1999/xlink">
    <title>编组 6</title>
    <g id="部署" stroke="none" stroke-width="1" fill="none" fill-rule="evenodd">
        <g id="主机管理-部署主机-失败/未连接" transform="translate(-868.000000, -394.000000)">
            <g id="table" transform="translate(266.000000, 118.000000)">
                <g id="编组-6" transform="translate(603.500000, 276.500000)">
                    <path d="M96.6428571,86.5 L138.142857,86.5 C143.665705,86.5 148.142857,90.9771525 148.142857,96.5 L148.142857,171.5 C148.142857,177.022847 143.665705,181.5 138.142857,181.5 L96.6428571,181.5 L96.6428571,181.5 L96.6428571,86.5 Z" id="矩形" stroke="#5365EA" stroke-width="1.5" stroke-dasharray="2,3" transform="translate(122.392857, 134.000000) scale(-1, -1) translate(-122.392857, -134.000000) "></path>
                    <g id="编组-15" transform="translate(0.000000, 0.247770)">
                        <g id="编组-18" transform="translate(0.000000, 194.252230)" stroke="#323288" stroke-linecap="square" stroke-width="1.5">
                            <line x1="0" y1="1" x2="6" y2="1" id="直线-5"></line>
                            <line x1="10" y1="1" x2="357.5" y2="1" id="直线-5"></line>
                            <line x1="363.4" y1="1" x2="372.074465" y2="1" id="直线-5"></line>
                        </g>
                        <path d="M301,15.2522304 L299,17.2522304 L297,15.2522304 L299,13.2522304 L301,15.2522304 Z M299,9.25223043 L301.12,11.3722304 L303.62,8.87223043 L299,4.25223043 L294.38,8.87223043 L296.88,11.3722304 L299,9.25223043 Z M293,15.2522304 L295.12,13.1322304 L292.62,10.6322304 L288,15.2522304 L292.62,19.8722304 L295.12,17.3722304 L293,15.2522304 Z M305,15.2522304 L302.88,17.3722304 L305.38,19.8722304 L310,15.2522304 L305.38,10.6322304 L302.88,13.1322304 L305,15.2522304 Z M299,21.2522304 L296.88,19.1322304 L294.38,21.6322304 L299,26.2522304 L303.62,21.6322304 L301.12,19.1322304 L299,21.2522304 Z" id="形状" fill-opacity="0.32" fill="#D9E6F2" fill-rule="nonzero"></path>
                        <path d="M29.3213239,96.6563611 C23.8013239,96.6563611 19.3213239,101.136361 19.3213239,106.656361 C19.3213239,107.986361 19.5813239,109.266361 20.0613239,110.426361 L25.3213239,105.156361 L28.6213239,107.936361 L31.9013239,104.656361 L30.3213239,104.656361 L30.3213239,102.656361 L35.3213239,102.656361 L35.3213239,107.656361 L33.3213239,107.656361 L33.3213239,106.076361 L28.7313239,110.656361 L25.4413239,107.866361 L21.0413239,112.266361 C22.8413239,114.916361 25.8813239,116.656361 29.3213239,116.656361 L37.3213239,116.656361 C38.4213239,116.656361 39.3213239,115.756361 39.3213239,114.656361 L39.3213239,106.656361 C39.3213239,101.136361 34.8413239,96.6563611 29.3213239,96.6563611 Z M36.8213239,115.156361 C36.2713239,115.156361 35.8213239,114.706361 35.8213239,114.156361 C35.8213239,113.606361 36.2713239,113.156361 36.8213239,113.156361 C37.3713239,113.156361 37.8213239,113.606361 37.8213239,114.156361 C37.8213239,114.706361 37.3713239,115.156361 36.8213239,115.156361 Z" id="形状" fill-opacity="0.32" fill="#D9E6F2" fill-rule="nonzero" transform="translate(29.321324, 106.656361) rotate(10.000000) translate(-29.321324, -106.656361) "></path>
                        <path d="M352.415441,39.3418018 L350.415441,39.3418018 L350.415441,48.3418018 L337.415441,48.3418018 L337.415441,50.3418018 C337.415441,50.8918018 337.865441,51.3418018 338.415441,51.3418018 L349.415441,51.3418018 L353.415441,55.3418018 L353.415441,40.3418018 C353.415441,39.7918018 352.965441,39.3418018 352.415441,39.3418018 Z M348.415441,45.3418018 L348.415441,36.3418018 C348.415441,35.7918018 347.965441,35.3418018 347.415441,35.3418018 L334.415441,35.3418018 C333.865441,35.3418018 333.415441,35.7918018 333.415441,36.3418018 L333.415441,50.3418018 L337.415441,46.3418018 L347.415441,46.3418018 C347.965441,46.3418018 348.415441,45.8918018 348.415441,45.3418018 Z" id="形状" fill-opacity="0.32" fill="#D9E6F2" fill-rule="nonzero" transform="translate(343.415441, 45.341802) rotate(-10.000000) translate(-343.415441, -45.341802) "></path>
                        <path d="M56.528342,176.801802 L60.528342,176.801802 L60.528342,164.801802 L56.528342,164.801802 L56.528342,176.801802 Z M78.528342,165.801802 C78.528342,164.701802 77.628342,163.801802 76.528342,163.801802 L70.218342,163.801802 L71.168342,159.231802 L71.198342,158.911802 C71.198342,158.501802 71.028342,158.121802 70.758342,157.851802 L69.698342,156.801802 L63.118342,163.391802 C62.748342,163.751802 62.528342,164.251802 62.528342,164.801802 L62.528342,174.801802 C62.528342,175.901802 63.428342,176.801802 64.528342,176.801802 L73.528342,176.801802 C74.358342,176.801802 75.068342,176.301802 75.368342,175.581802 L78.388342,168.531802 C78.478342,168.301802 78.528342,168.061802 78.528342,167.801802 L78.528342,165.801802 Z" id="形状" fill-opacity="0.32" fill="#D9E6F2" fill-rule="nonzero"></path>
                        <path d="M299,158.25223 L355,158.25223 C354.666667,154.585564 353.166667,152.75223 350.5,152.75223 C346.5,152.75223 344.5,154.75223 343.5,154.75223 C342.5,154.75223 339.5,147.75223 334.5,146.75223 C329.5,145.75223 327.5,149.75223 325.5,149.75223 C323.5,149.75223 323.5,149.75223 314.5,146.75223 C307.781208,148.907315 302.614541,152.740648 299,158.25223 Z" id="直线-9" fill-opacity="0.32" fill="#D9E6F2"></path>
                        <path d="M56.6785153,10.2147923 L107.053083,10.2147923 C105.08315,7.90641771 102.898789,6.75223043 100.5,6.75223043 C96.9018166,6.75223043 93.3995458,8.75223043 92.5,8.75223043 C91.6004542,8.75223043 90.9977292,4.75223043 86.5,3.75223043 C82.0022708,2.75223043 80.2990917,5.75223043 78.5,5.75223043 C76.7009083,5.75223043 73.5657925,-2.48039602 64.5,0.752230432 C58.4561384,2.90731473 55.8489768,6.06150201 56.6785153,10.2147923 Z" id="直线-9" fill-opacity="0.32" fill="#D9E6F2"></path>
                    </g>
                    <g id="编组-16" transform="translate(119.818152, 70.000000)">
                        <rect id="矩形" fill="#E7EFFF" x="8" y="27" width="126" height="81"></rect>
                        <g id="编组-9" transform="translate(71.000000, 63.000000) scale(-1, 1) translate(-71.000000, -63.000000) translate(0.000000, 47.500000)">
                            <rect id="矩形" stroke="var(--text-color)" stroke-width="1.5" fill="#FFFFFF" x="0" y="0" width="142" height="31" rx="6"></rect>
                            <rect id="矩形" fill="#D9E6F2" x="34" y="13" width="46.5" height="5" rx="1.5"></rect>
                            <rect id="矩形" fill="#D9E6F2" x="16" y="13" width="10" height="5" rx="1.5"></rect>
                            <circle id="椭圆形" fill="#5365EA" cx="121" cy="15.5" r="5"></circle>
                            <circle id="椭圆形" fill="#5365EA" cx="103" cy="15.5" r="5"></circle>
                        </g>
                        <g id="编组-9" transform="translate(71.000000, 110.000000) scale(-1, 1) translate(-71.000000, -110.000000) translate(0.000000, 94.500000)">
                            <rect id="矩形" stroke="var(--text-color)" stroke-width="1.5" fill="#FFFFFF" x="0" y="0" width="142" height="31" rx="6"></rect>
                            <rect id="矩形" fill="#D9E6F2" x="34" y="13" width="46.5" height="5" rx="1.5"></rect>
                            <rect id="矩形" fill="#D9E6F2" x="16" y="13" width="10" height="5" rx="1.5"></rect>
                            <circle id="椭圆形" fill="#5365EA" cx="121" cy="15.5" r="5"></circle>
                            <circle id="椭圆形" fill="#5365EA" cx="103" cy="15.5" r="5"></circle>
                        </g>
                        <g id="编组-9" transform="translate(71.000000, 16.000000) scale(-1, 1) translate(-71.000000, -16.000000) translate(0.000000, 0.500000)">
                            <path d="M42.3571429,0 L136,0 C139.313708,0 142,2.6862915 142,6 L142,25 C142,28.3137085 139.313708,31 136,31 L6,31 C2.6862915,31 0,28.3137085 0,25 L0,6 C0,2.6862915 2.6862915,0 6,0 L12.3571429,0" id="路径" stroke="var(--text-color)" stroke-width="1.5" fill="#FFFFFF"></path>
                            <rect id="矩形" fill="#D9E6F2" x="34" y="13" width="46.5" height="5" rx="1.5"></rect>
                            <rect id="矩形" fill="#D9E6F2" x="16" y="13" width="10" height="5" rx="1.5"></rect>
                            <circle id="椭圆形" fill="#5365EA" cx="121" cy="15.5" r="5"></circle>
                            <circle id="椭圆形" fill="#5365EA" cx="103" cy="15.5" r="5"></circle>
                        </g>
                    </g>
                    <path d="M234.619089,33.6666667 C225.331089,33.6666667 217.819089,41.1786667 217.819089,50.4666667 C217.819089,63.0666667 234.619089,81.6666667 234.619089,81.6666667 C234.619089,81.6666667 251.419089,63.0666667 251.419089,50.4666667 C251.419089,41.1786667 243.907089,33.6666667 234.619089,33.6666667 Z M234.619089,56.4666667 C231.307089,56.4666667 228.619089,53.7786667 228.619089,50.4666667 C228.619089,47.1546667 231.307089,44.4666667 234.619089,44.4666667 C237.931089,44.4666667 240.619089,47.1546667 240.619089,50.4666667 C240.619089,53.7786667 237.931089,56.4666667 234.619089,56.4666667 Z" id="形状" fill="#5365EA" fill-rule="nonzero"></path>
                    <path d="M272.346621,142 L297.485695,185.542155 C299.14255,188.411911 298.159299,192.081453 295.289543,193.738307 C294.377428,194.264917 293.342763,194.542155 292.289543,194.542155 L242.011393,194.542155 C238.697685,194.542155 236.011393,191.855863 236.011393,188.542155 C236.011393,187.488935 236.288631,186.45427 236.815241,185.542155 L261.954316,142 C263.61117,139.130244 267.280713,138.146993 270.150468,139.803848 C271.062584,140.330458 271.820011,141.087885 272.346621,142 Z" id="多边形" stroke="var(--text-color)" stroke-width="1.5" fill="#FFFFFF"></path>
                    <polygon id="矩形" fill="#5365EA" points="264.150468 152 270.150468 152 269.150468 175.5 265.150468 175.5"></polygon>
                    <rect id="矩形" fill="#5365EA" x="264.150468" y="181.5" width="6" height="6"></rect>
                    <g id="编组-20" transform="translate(70.318152, 116.750000)">
                        <circle id="椭圆形" stroke="#323288" stroke-width="1.5" fill="#FFFFFF" cx="41.0033857" cy="21.9513725" r="20.078133"></circle>
                        <path d="M55.5173516,0.282152431 C62.4915545,4.96269838 67.0815188,12.9210136 67.0815188,21.9513725 C67.0815188,25.2273882 66.4774432,28.3623146 65.3746033,31.2508404 L58.8031322,31.2500394 C60.258426,28.4699886 61.0815188,25.3068024 61.0815188,21.9513725 C61.0815188,14.2956594 56.7967859,7.64069933 50.4945719,4.25374406 C51.2447178,2.12295569 53.1653416,0.543879496 55.4846556,0.286811193 Z" id="形状结合" fill-opacity="0.12" fill="#5365EA"></path>
                        <path d="M41.0019304,2.74793421 C41.8515476,2.74793421 42.688278,2.80310934 43.5087339,2.91007194 C34.087372,4.13784545 26.8115954,12.1949346 26.8115954,21.9513725 C26.8115954,31.7078103 34.087372,39.7648995 43.5090674,40.9927821 C42.688278,41.0996356 41.8515476,41.1548107 41.0019304,41.1548107 C30.3961643,41.1548107 21.7984921,32.5571386 21.7984921,21.9513725 C21.7984921,11.3456064 30.3961643,2.74793421 41.0019304,2.74793421 Z" id="路径" fill="#E0E7F5"></path>
                        <path d="M11.8237895,38.4757165 C13.9183494,38.4757165 15.6163257,40.1736928 15.6163257,42.2682528 L15.6163257,60.1154821 C15.6163257,62.2100421 13.9183494,63.9080184 11.8237895,63.9080184 C9.72922952,63.9080184 8.03125321,62.2100421 8.03125321,60.1154821 L8.03125321,42.2682528 C8.03125321,40.1736928 9.72922952,38.4757165 11.8237895,38.4757165 Z" id="矩形" stroke="#323288" stroke-width="1.5" fill="#FFFFFF" transform="translate(11.823789, 51.191867) rotate(45.000000) translate(-11.823789, -51.191867) "></path>
                        <line x1="23.9214584" y1="34.8584579" x2="23.6192512" y2="43.8902519" id="直线-7" stroke="#323288" stroke-width="1.5" stroke-linecap="square" transform="translate(23.770355, 39.374355) rotate(-135.000000) translate(-23.770355, -39.374355) "></line>
                    </g>
                    <g id="编组-21" transform="translate(110.175295, 25.497770)">
                        <line x1="0" y1="6" x2="12" y2="6" id="直线-8" stroke="#5365EA" stroke-width="1.5" stroke-linecap="square"></line>
                        <line x1="0" y1="6" x2="12" y2="6" id="直线-8" stroke="#5365EA" stroke-width="1.5" stroke-linecap="square" transform="translate(6.000000, 6.000000) rotate(90.000000) translate(-6.000000, -6.000000) "></line>
                        <rect id="矩形" fill="#5365EA" transform="translate(6.000000, 6.000000) rotate(45.000000) translate(-6.000000, -6.000000) " x="2" y="2" width="8" height="8"></rect>
                    </g>
                    <g id="编组-21" transform="translate(151.619089, 47.497691)" stroke="#5365EA">
                        <line x1="0" y1="3" x2="6" y2="3" id="直线-8" stroke-width="1.5" stroke-linecap="square"></line>
                        <polygon id="矩形" fill="#5365EA" transform="translate(3.000000, 3.000000) rotate(45.000000) translate(-3.000000, -3.000000) " points="1.25 1.25 4.75 1.25 4.75 4.75 1.25 4.75"></polygon>
                        <line x1="1.00280713e-15" y1="3" x2="6" y2="3" id="直线-8" stroke-width="1.5" stroke-linecap="square" transform="translate(3.000000, 3.000000) rotate(90.000000) translate(-3.000000, -3.000000) "></line>
                    </g>
                    <path d="M194.119167,47.4976914 C193.719167,47.4976914 193.319479,47.3451914 193.014167,47.0398789 L189.576667,43.6023789 C188.966354,42.9923789 188.966354,42.0030039 189.576667,41.3930039 L193.014167,37.9555039 C193.624479,37.3451914 194.613542,37.3451914 195.223854,37.9555039 L198.661354,41.3930039 C199.271667,42.0030039 199.271667,42.9923789 198.661354,43.6023789 L195.223854,47.0398789 C194.918854,47.3451914 194.519167,47.4976914 194.119167,47.4976914 Z M192.891354,42.4976914 L194.119167,43.7255039 L195.346979,42.4976914 L194.119167,41.2698789 L192.891354,42.4976914 Z" id="形状" fill="#5365EA" fill-rule="nonzero"></path>
                </g>
            </g>
        </g>
    </g>
</svg>