<?xml version="1.0" encoding="UTF-8"?>
<svg width="292px" height="191px" viewBox="0 0 292 191" version="1.1" xmlns="http://www.w3.org/2000/svg" xmlns:xlink="http://www.w3.org/1999/xlink">
    <title>路线图</title>
    <g id="缺省" stroke="none" stroke-width="1" fill="none" fill-rule="evenodd">
        <g id="流水线任务详情空" transform="translate(-1097.000000, -97.000000)">
            <g id="路线图" transform="translate(1097.849851, 97.619903)">
                <path d="M176.897974,56.4742315 C154.754539,47.8104819 124.090601,51.1019697 107.145095,66.5720584 C95.180244,77.4950806 104.440698,80.6083903 112.598114,100.595742 C118.502347,115.061817 59.9855838,113.070773 59.9855838,139.210397 C59.9855838,169.42985 102.367295,163.701552 118.095037,167.160643 C142.141388,172.449584 163.118975,192.234403 188.81123,189.626145 C211.178029,187.355335 219.704941,169.803832 222.815366,149.682846 C228.61,112.196226 214.377864,71.1386733 176.897974,56.4742315 Z" id="路径" fill="#E7EFFF" fill-rule="nonzero"></path>
                <g id="编组-20" transform="translate(233.485312, 144.680353) scale(-1, 1) translate(-233.485312, -144.680353) translate(210.982713, 122.465935)">
                    <circle id="椭圆形" stroke="#323288" stroke-width="1.5" fill="#FFFFFF" cx="27.4699867" cy="16.9179" r="13.5007474"></circle>
                    <path d="M32.0980152,-0.000121446304 C39.5368419,2.03009365 45.0051972,8.83539544 45.0051972,16.9179 C45.0051972,23.7577675 41.0890395,29.6829673 35.3766005,32.5736229 C35.0031804,31.2484764 34.664998,29.8993783 34.3581254,28.5308322 C38.3180386,26.1773691 40.9707342,21.8574197 40.9707342,16.9179 C40.9707342,11.0285377 37.1997516,6.01993549 31.9406433,4.17495029 C31.9608766,3.00515016 32.0008732,1.8357254 32.0605947,0.668328904 Z" id="形状结合" fill-opacity="0.12" fill="#5365EA"></path>
                    <path d="M27.4690081,4.00530653 C28.0402997,4.00530653 28.602926,4.04240687 29.1546091,4.11432965 C22.8195865,4.93989744 17.9272779,10.3575688 17.9272779,16.9179 C17.9272779,23.4782313 22.8195865,28.8959026 29.1548334,29.7215438 C28.602926,29.7933932 28.0402997,29.8304935 27.4690081,29.8304935 C20.3375797,29.8304935 14.5564146,24.0493285 14.5564146,16.9179 C14.5564146,9.78647156 20.3375797,4.00530653 27.4690081,4.00530653 Z" id="路径" fill="#E0E7F5"></path>
                    <path d="M7.84931983,28.0290425 C9.25772392,28.0290425 10.399461,29.1707796 10.399461,30.5791836 L10.399461,42.579848 C10.399461,43.9882521 9.25772392,45.1299892 7.84931983,45.1299892 C6.44091575,45.1299892 5.29917865,43.9882521 5.29917865,42.579848 L5.29917865,30.5791836 C5.29917865,29.1707796 6.44091575,28.0290425 7.84931983,28.0290425 Z" id="矩形" stroke="#323288" stroke-width="1.5" fill="#FFFFFF" transform="translate(7.849320, 36.579516) rotate(45.000000) translate(-7.849320, -36.579516) "></path>
                    <line x1="15.9839194" y1="25.5967598" x2="15.7807121" y2="31.6698329" id="直线-7" stroke="#323288" stroke-width="1.5" stroke-linecap="square" transform="translate(15.882316, 28.633296) rotate(-135.000000) translate(-15.882316, -28.633296) "></line>
                </g>
                <g id="路线" transform="translate(71.471021, 86.433495)" stroke-dasharray="5" stroke-linecap="round" stroke-linejoin="round" stroke-width="1.5">
                    <path d="M29.5600262,10.8235294 L39.4137872,10.8235294 L104.631458,10.8235294 M134.97395,13.958668 C138.190758,17.0029087 140.286408,21.9785742 140.286408,27.6 C140.286408,36.8653889 134.593252,44.3764706 127.570388,44.3764706 L17.451164,44.2850541" id="形状" stroke="#5365EA" opacity="0.08"></path>
                    <path d="M77.6100289,81.5529412 L77.6100289,81.5529412 L18.0485437,81.5529412 C8.08060825,81.5529412 0,72.7976207 0,61.9973856 C0,51.1971505 8.08060825,42.4418301 18.0485437,42.4418301 L21.4330121,42.4418301 L21.4330121,42.4418301" id="路径" stroke="#5365EA" opacity="0.08"></path>
                    <path d="M29.5600262,4.92939023e-14 L39.4137872,1.03428377e-12 L104.631458,1.03428377e-12 M134.97395,3.13513862 C138.190758,6.17937927 140.286408,11.1550448 140.286408,16.7764706 C140.286408,26.0418595 134.593252,33.5529412 127.570388,33.5529412 L17.451164,33.4615247" id="形状" stroke="#0F1358"></path>
                    <path d="M77.6100289,72.6640523 L77.6100289,72.6640523 L18.0485437,72.6640523 C8.08060825,72.6640523 0,63.9087318 0,53.1084967 C0,42.3082616 8.08060825,33.5529412 18.0485437,33.5529412 L21.4330121,33.5529412 L21.4330121,33.5529412" id="路径" stroke="#0F1358"></path>
                </g>
                <path d="M244.572962,160.795145 L290.51471,160.795145 C290.241247,157.787054 289.010665,156.283009 286.822962,156.283009 C283.541409,156.283009 281.900632,157.923786 281.080244,157.923786 C280.259856,157.923786 277.798691,152.181067 273.696749,151.360679 C269.594807,150.540291 267.95403,153.821844 266.313254,153.821844 C264.672477,153.821844 265.55701,148.70867 257.288982,151.360679 C251.776963,153.128685 247.53829,156.273507 244.572962,160.795145 Z" id="直线-9" fill-opacity="0.32" fill="#D9E6F2"></path>
                <g id="审核-(2)" transform="translate(0.000000, 67.714023)" fill="#D9E6F2" fill-rule="nonzero" opacity="0.32">
                    <path d="M16.1337497,17.2999866 L14.174496,15.2905266 C14.6358168,14.5761805 14.8807547,13.7436857 14.8798031,12.8933291 C14.8798031,10.4894779 12.9816438,8.54050735 10.6394917,8.54050735 C8.29794461,8.54050735 6.39918035,10.4894779 6.39918035,12.8933291 C6.39918035,15.2971804 8.29794461,17.2455461 10.6394917,17.2455461 C11.4732896,17.245221 12.2875471,16.9930584 12.9755948,16.5220921 L14.9336388,18.5321569 C15.0498344,18.6518965 15.2095714,18.7194716 15.3764216,18.7194716 C15.5432719,18.7194716 15.7030089,18.6518965 15.8192045,18.5321569 L16.1325399,18.210353 C16.3765039,17.9561657 16.3765039,17.5547788 16.1325399,17.3005915 L16.1337497,17.2999866 Z M12.9302277,14.0117793 C12.6831705,14.547366 12.2597353,14.9819049 11.7307217,15.2427399 C11.3920728,15.4124468 11.0188824,15.5018634 10.6400967,15.5040544 C9.23492642,15.5040544 8.09651469,14.3347931 8.09651469,12.8927243 C8.09651469,11.4500506 9.2349264,10.2807892 10.6400967,10.2807892 C12.0452669,10.2807892 13.1842835,11.4500506 13.1842835,12.8927243 C13.1842835,13.2949792 13.0881052,13.6718285 12.9302277,14.0117793 L12.9302277,14.0117793 Z M5.1089401,13.7075173 L3.0341515,13.7075173 C2.67907836,13.7075173 2.38872893,13.4093043 2.38872891,13.0445528 C2.38872891,12.6798013 2.67907834,12.3809834 3.03475639,12.3809834 L5.07325132,12.3809834 C5.12524066,11.771974 5.27325314,11.1750243 5.51179993,10.6122715 L3.03475639,10.6122715 C2.67907834,10.6122715 2.38872891,10.3140584 2.38872891,9.94930695 C2.38872891,9.58455548 2.67907834,9.28573754 3.03475639,9.28573754 L6.29997763,9.28573754 C6.93278081,8.48488233 7.77326763,7.8730866 8.72983939,7.51702564 L3.03475639,7.51702564 C2.67907834,7.51702564 2.38872891,7.21881259 2.38872891,6.85406111 C2.38872891,6.48870475 2.67907834,6.1904917 3.03475639,6.1904917 L12.9810389,6.1904917 C13.3367169,6.1904917 13.6270664,6.48870475 13.6270664,6.85406111 C13.6270664,7.21881259 13.3367169,7.51702564 12.9810389,7.51702564 L12.4940987,7.51702564 C14.2361953,8.16002863 15.5748271,9.67045055 16.0157953,11.5407847 L16.0157953,2.01006486 C16.0157953,0.904317465 15.1350687,0 14.0577513,0 L1.95804395,0 C0.881331484,0 0,0.904317465 0,2.01006486 L0,16.3605852 C0,17.4663326 0.880726594,18.3706501 1.95804395,18.3706501 L9.0546678,18.3706501 C6.98895263,17.7536576 5.42046084,15.9389736 5.10833521,13.7075173 L5.1089401,13.7075173 Z M3.0341515,3.09585073 L12.980434,3.09585073 C13.336112,3.09585073 13.6264615,3.39406378 13.6264615,3.75881525 C13.6264615,4.12417162 13.336112,4.42238467 12.980434,4.42238467 L3.03475639,4.42238467 C2.67907834,4.42238467 2.38872891,4.12417162 2.38872891,3.75881525 C2.38872891,3.39406378 2.67907834,3.09585073 3.03475639,3.09585073 L3.0341515,3.09585073 Z" id="形状"></path>
                </g>
                <path d="M259.144011,105.958044 C257.214307,105.655556 256.581741,104.984893 256.58087,104.984893 L256.523279,104.923739 L256.523279,104.924792 C256.318018,104.7287 256.248281,104.381253 256.228403,104.078968 C257.482342,103.113731 258.455392,101.283359 258.455392,99.234628 C258.455392,95.9535571 256.261014,94.7569255 254.537139,94.7569255 C252.813649,94.7569255 250.596113,95.9535571 250.596113,99.234628 C250.596113,101.283359 251.593758,103.113731 252.848082,104.079737 C252.829175,104.380302 252.758953,104.727728 252.552254,104.924792 L252.507497,104.972828 C252.500938,104.979387 251.870781,105.654585 249.932008,105.958044 C249.659237,105.967396 248.520277,106.074663 248.029207,107.182469 C247.759229,107.791696 247.868986,108.237421 248.008863,108.502764 C248.340481,109.134075 249.070172,109.214135 249.251021,109.225512 L259.747043,109.225512 C260.001313,109.225512 260.85659,109.171585 261.176912,108.472865 C261.313591,108.177037 261.386121,107.689247 260.96412,107.04502 C260.422342,106.219743 259.588664,105.975797 259.144011,105.958044 Z M264.036872,105.43323 C263.656349,104.840703 263.070482,104.665725 262.75767,104.652405 C261.401971,104.436739 260.9575,103.955406 260.956529,103.955406 L260.916893,103.912106 C260.772785,103.771864 260.722927,103.521259 260.709709,103.304034 C261.590452,102.611467 262.215103,101.394573 262.215103,99.9237124 C262.215103,97.5680401 260.692725,96.4797276 259.481336,96.4797276 C259.248686,96.4797276 259.010246,96.5154156 258.776624,96.5903544 C258.840673,96.7763248 258.89632,96.9693397 258.946299,97.1681238 L258.797373,97.1681238 C258.797373,97.1681238 259.639635,99.9372953 258.632617,102.299121 C258.58448,102.247907 258.536444,102.201997 258.49025,102.143637 C258.341425,102.446509 258.172904,102.724503 257.986265,102.975959 C258.095657,103.095472 258.210616,103.207739 258.333996,103.304013 C258.320777,103.520368 258.270818,103.769901 258.124787,103.911297 L258.093633,103.946013 C258.090941,103.948807 257.844202,104.215424 257.165826,104.441516 C257.659486,104.494086 258.175819,104.571535 258.674884,104.678802 C258.688204,104.665684 258.699378,104.652365 258.708831,104.643012 C258.73622,104.614652 258.75792,104.584652 258.783386,104.55447 C258.875591,104.603559 258.986724,104.662688 259.139314,104.746514 C259.910868,105.170438 261.302255,105.867437 261.531241,106.1245 L261.495351,106.1245 C261.744985,106.430753 261.969234,106.783018 262.14065,107.158036 L263.240056,107.158036 C263.418982,107.158036 263.960678,106.960203 264.185819,106.459984 L264.186689,106.459984 C264.281871,106.246078 264.333652,105.895737 264.036872,105.43323 Z" id="形状" fill="#D9E6F2" fill-rule="nonzero" opacity="0.32"></path>
                <g id="编组" transform="translate(247.854516, 94.753883)"></g>
                <path d="M49.1310469,50.452848 L52.4126003,50.452848 L52.4126003,40.6081878 L49.1310469,40.6081878 L49.1310469,50.452848 Z M67.1795906,41.4285762 C67.1795906,40.526149 66.4412411,39.7877995 65.5388139,39.7877995 L60.3621634,39.7877995 L61.1415324,36.0386247 L61.166144,35.7761004 C61.166144,35.4397412 61.026678,35.1279936 60.8051731,34.9064888 L59.9355615,34.045081 L54.5374061,39.4514402 C54.2338625,39.74678 54.053377,40.1569742 54.053377,40.6081878 L54.053377,48.8120713 C54.053377,49.7144985 54.7917265,50.452848 55.6941537,50.452848 L63.0776489,50.452848 C63.7585712,50.452848 64.3410469,50.0426538 64.5871634,49.4519742 L67.0647362,43.6682364 C67.1385712,43.479547 67.1795906,43.2826538 67.1795906,43.0693529 L67.1795906,41.4285762 Z" id="形状" fill-opacity="0.32" fill="#D9E6F2" fill-rule="nonzero"></path>
                <path d="M244.572962,36.2839306 L269.184613,36.2839306 C269.038115,34.6724535 268.378874,33.8667149 267.206891,33.8667149 C265.448916,33.8667149 264.569928,34.7457024 264.130435,34.7457024 C263.690941,34.7457024 262.37246,31.6692461 260.174991,31.2297524 C257.977522,30.7902586 257.098535,32.5482336 256.219547,32.5482336 C255.34056,32.5482336 255.814417,29.8090332 251.385116,31.2297524 C248.432248,32.1768985 246.161531,33.8616245 244.572962,36.2839306 Z" id="直线-9" fill-opacity="0.32" fill="#D9E6F2"></path>
                <path d="M78.5292931,8.38009657 L119.856001,8.38009657 C118.239891,6.48633298 116.447867,5.53945118 114.479929,5.53945118 C111.528021,5.53945118 108.654799,7.18022788 107.916822,7.18022788 C107.178845,7.18022788 106.684376,3.89867448 102.994492,3.07828613 C99.304607,2.25789778 97.9073388,4.71906283 96.4313849,4.71906283 C94.955431,4.71906283 92.3834185,-2.034888 84.945948,0.617121082 C79.9876343,2.38512714 77.8487494,4.97278563 78.5292931,8.38009657 Z" id="直线-9" fill-opacity="0.32" fill="#D9E6F2"></path>
                <g id="编组-21" transform="translate(166.528350, 8.380097)">
                    <line x1="0" y1="4.9223301" x2="9.84466019" y2="4.9223301" id="直线-8" stroke="#5365EA" stroke-width="1.5" stroke-linecap="square"></line>
                    <line x1="3.934897e-15" y1="4.9223301" x2="9.84466019" y2="4.9223301" id="直线-8" stroke="#5365EA" stroke-width="1.5" stroke-linecap="square" transform="translate(4.922330, 4.922330) rotate(90.000000) translate(-4.922330, -4.922330) "></line>
                    <polygon id="矩形" fill="#5365EA" transform="translate(4.922330, 4.922330) rotate(45.000000) translate(-4.922330, -4.922330) " points="1.6407767 1.6407767 8.2038835 1.6407767 8.2038835 8.2038835 1.6407767 8.2038835"></polygon>
                </g>
                <path d="M196.99063,42.2489645 C196.662475,42.2489645 196.334576,42.1238553 196.084101,41.8733805 L193.264016,39.0532955 C192.763323,38.5528586 192.763323,37.7411869 193.264016,37.24075 L196.084101,34.4206651 C196.584795,33.9199718 197.39621,33.9199718 197.896903,34.4206651 L200.716988,37.24075 C201.217681,37.7411869 201.217681,38.5528586 200.716988,39.0532955 L197.896903,41.8733805 C197.646685,42.1238553 197.318786,42.2489645 196.99063,42.2489645 Z M195.983347,38.1470228 L196.99063,39.1543058 L197.997914,38.1470228 L196.99063,37.1397397 L195.983347,38.1470228 Z" id="形状" fill="#5365EA" fill-rule="nonzero"></path>
                <g id="编组-15" transform="translate(116.821835, 31.689747)">
                    <path d="M29.3023472,9.68440755 C28.9409271,9.66274749 28.5766302,9.65176195 28.2097675,9.65176195 C18.278044,9.65176195 10.2267913,17.7030146 10.2267913,27.6347381 C10.2267913,31.8942133 11.7076936,35.8078052 14.182716,38.8887318 C17.4786483,42.9915331 22.5375191,45.6177143 28.2097675,45.6177143" id="路径" fill="#5365EA" opacity="0.2" transform="translate(19.764569, 27.634738) scale(1, -1) rotate(96.000000) translate(-19.764569, -27.634738) "></path>
                    <circle id="椭圆形" stroke="#0F1358" stroke-width="1.5" fill="#FFFFFF" cx="17.0365037" cy="17.0365037" r="17.0365037"></circle>
                    <g id="编组-3" transform="translate(4.214503, 11.392381)" stroke="#5365EA" stroke-linecap="round" stroke-linejoin="round" stroke-width="3">
                        <path d="M9.91932157,9.91932157 L2.61493486,9.91932157 C2.11067219,9.91932157 1.70188652,9.51053591 1.70188652,9.00627323 L1.70188652,1.70188652" id="路径" transform="translate(5.810604, 5.810604) rotate(-315.000000) translate(-5.810604, -5.810604) "></path>
                        <path d="M23.4193934,9.91932157 L16.1150067,9.91932157 C15.6107441,9.91932157 15.2019584,9.51053591 15.2019584,9.00627323 L15.2019584,1.70188652" id="路径" transform="translate(19.310676, 5.810604) scale(-1, 1) rotate(-315.000000) translate(-19.310676, -5.810604) "></path>
                        <line x1="8.77120098" y1="11.3335499" x2="14.9920255" y2="1.37814965" id="路径"></line>
                    </g>
                </g>
                <rect id="矩形" stroke="#0F1358" fill="#FFFFFF" x="48.6310469" y="73.7335788" width="51" height="25" rx="4"></rect>
                <rect id="矩形" stroke="#0F1358" fill="#FFFFFF" x="151.650149" y="73.7335788" width="51" height="25" rx="4"></rect>
                <rect id="矩形" stroke="#0F1358" fill="#FFFFFF" x="151.650149" y="146.733579" width="51" height="25" rx="4"></rect>
                <path d="M99.1310469,91.2335788 L99.1310469,94.2335788 C99.1310469,96.4427178 97.3401859,98.2335788 95.1310469,98.2335788 L53.1310469,98.2335788 C50.9219079,98.2335788 49.1310469,96.4427178 49.1310469,94.2335788 L49.1310469,78.2335788 C49.1310469,76.0244398 50.9219079,74.2335788 53.1310469,74.2335788 L55.4863062,74.2326227 C54.6552575,74.9655905 54.1310469,76.0383667 54.1310469,77.2335788 L54.1310469,77.2335788 L54.1310469,91.2335788 C54.1310469,93.4427178 55.9219079,95.2335788 58.1310469,95.2335788 L58.1310469,95.2335788 L95.1310469,95.2335788 C97.3401859,95.2335788 99.1310469,93.4427178 99.1310469,91.2335788 L99.1310469,91.2335788 Z" id="形状结合" fill="#E0E7F5"></path>
                <path d="M202.150149,91.2335788 L202.150149,94.2335788 C202.150149,96.4427178 200.359288,98.2335788 198.150149,98.2335788 L156.150149,98.2335788 C153.94101,98.2335788 152.150149,96.4427178 152.150149,94.2335788 L152.150149,78.2335788 C152.150149,76.0244398 153.94101,74.2335788 156.150149,74.2335788 L158.505408,74.2326227 C157.67436,74.9655905 157.150149,76.0383667 157.150149,77.2335788 L157.150149,77.2335788 L157.150149,91.2335788 C157.150149,93.4427178 158.94101,95.2335788 161.150149,95.2335788 L161.150149,95.2335788 L198.150149,95.2335788 C200.359288,95.2335788 202.150149,93.4427178 202.150149,91.2335788 L202.150149,91.2335788 Z" id="形状结合" fill="#E0E7F5"></path>
                <path d="M202.150149,164.233579 L202.150149,167.233579 C202.150149,169.442718 200.359288,171.233579 198.150149,171.233579 L156.150149,171.233579 C153.94101,171.233579 152.150149,169.442718 152.150149,167.233579 L152.150149,151.233579 C152.150149,149.02444 153.94101,147.233579 156.150149,147.233579 L158.505408,147.232623 C157.67436,147.96559 157.150149,149.038367 157.150149,150.233579 L157.150149,150.233579 L157.150149,164.233579 C157.150149,166.442718 158.94101,168.233579 161.150149,168.233579 L161.150149,168.233579 L198.150149,168.233579 C200.359288,168.233579 202.150149,166.442718 202.150149,164.233579 L202.150149,164.233579 Z" id="形状结合" fill="#E0E7F5"></path>
                <g id="编组-23" transform="translate(27.499976, 163.592279) rotate(-20.000000) translate(-27.499976, -163.592279) translate(7.999976, 148.092279)">
                    <path d="M37.7559324,19.223768 C37.7559324,21.5005621 35.9650714,23.3462684 33.7559324,23.3462684 L16.125,23.3462684 L9.41846282,30.1067204 C9.26434601,30.2620632 9.06446482,30.3616958 8.8501687,30.392347 L8.72011203,30.4028582 C8.20731041,30.408278 7.78020784,30.0271461 7.71670144,29.5305079 L7.70862697,29.4139723 L7.638,23.3462684 L4,23.3462684 C1.790861,23.3462684 0,21.5005621 0,19.223768 L0.374606593,4.54158492 C0.374606593,2.26479081 2.16546759,0.419084509 4.37460659,0.419084509 L34.130539,0.419084509 C36.339678,0.419084509 38.130539,2.26479081 38.130539,4.54158492 C38.130539,11.0352265 37.7559324,15.4734428 37.7559324,16.0018661" id="路径" stroke="#0F1358" stroke-linecap="round" stroke-linejoin="round"></path>
                    <g id="info_black_24dp" transform="translate(11.065270, 3.646377)">
                        <polygon id="路径" points="0 0 16 0 16 16 0 16"></polygon>
                        <path d="M8,1.33333333 C4.32,1.33333333 1.33333333,4.32 1.33333333,8 C1.33333333,11.68 4.32,14.6666667 8,14.6666667 C11.68,14.6666667 14.6666667,11.68 14.6666667,8 C14.6666667,4.32 11.68,1.33333333 8,1.33333333 Z M8.66666667,11.3333333 L7.33333333,11.3333333 L7.33333333,7.33333333 L8.66666667,7.33333333 L8.66666667,11.3333333 Z M8.66666667,6 L7.33333333,6 L7.33333333,4.66666667 L8.66666667,4.66666667 L8.66666667,6 Z" id="形状" fill="#5365EA" fill-rule="nonzero"></path>
                    </g>
                </g>
                <g id="编组-26" transform="translate(251.258297, 66.977748) rotate(6.000000) translate(-251.258297, -66.977748) translate(231.758297, 51.477748)">
                    <path d="M15.8667906,1.72803993e-11 C19.1795501,1.72803993e-11 25.5572865,1.72803993e-11 35,1.72803993e-11 C37.209139,1.72803993e-11 39,1.790861 39,4 L39,21 C39,23.209139 37.209139,25 35,25 L31.185,25 L31.185076,29.803352 C31.185076,29.9721147 31.1423802,30.1374193 31.0618741,30.2842129 L30.9944814,30.3906022 C30.6951005,30.8034798 30.1392678,30.9197283 29.7039314,30.6801145 L29.5978258,30.6127575 L21.862,25 L4,25 C1.790861,25 -1.45519152e-11,23.209139 -1.45519152e-11,21 L-1.45519152e-11,4 C-1.45519152e-11,1.790861 1.790861,1.72803993e-11 4,1.72803993e-11 C7.0176234,1.72803993e-11 9.28084095,1.72803993e-11 10.7896526,1.72803993e-11" id="路径" stroke="#0F1358" fill="#FFFFFF" stroke-linecap="round" stroke-linejoin="round"></path>
                    <g id="编组" transform="translate(12.895472, 5.005478)" fill="#5365EA" fill-rule="nonzero">
                        <path d="M7.5,0 C3.35786438,0 0,3.35786438 0,7.5 C0,11.6421356 3.35786438,15 7.5,15 C11.6421356,15 15,11.6421356 15,7.5 C15,5.51087633 14.2098237,3.60322198 12.8033009,2.19669914 C11.396778,0.790176303 9.48912367,0 7.5,0 Z M10.8272727,7.05454545 L5.93636364,11.9454546 C5.79734285,12.0632124 5.59356624,12.0632124 5.45454545,11.9454546 C5.36147712,11.8784751 5.32128842,11.7597357 5.35454546,11.65 L6.26363637,8.63181819 L4.44545455,8.63181819 C4.27238819,8.64822769 4.11669216,8.52646541 4.09090909,8.35454546 C4.09138625,8.31852422 4.09911579,8.28296832 4.11363636,8.25 L5.93181819,4.05909091 C5.98959307,3.93648003 6.11451494,3.85974231 6.25,3.86363637 L9.31818182,3.86363637 C9.4948527,3.85324778 9.64693297,3.98707842 9.6590909,4.16363637 C9.6581465,4.20254475 9.65045664,4.24099407 9.63636363,4.27727273 L8.57727272,6.55 L10.5681818,6.55 C10.6533603,6.54377274 10.7374662,6.57205006 10.8015814,6.62847151 C10.8656967,6.68489295 10.9044379,6.76472106 10.9090909,6.85 C10.9117945,6.92665354 10.882095,7.00090228 10.8272727,7.05454545 L10.8272727,7.05454545 Z" id="形状"></path>
                    </g>
                </g>
            </g>
        </g>
    </g>
</svg>